<mxfile host="app.diagrams.net" agent="Mozilla/5.0 (Windows NT 10.0; Win64; x64) AppleWebKit/537.36 (KHTML, like Gecko) Chrome/131.0.0.0 Safari/537.36" version="25.0.3">
  <diagram name="Page-1" id="u1yZ-cpTWC8iSeOvU4ip">
    <mxGraphModel dx="1235" dy="1724" grid="1" gridSize="10" guides="1" tooltips="1" connect="1" arrows="1" fold="1" page="1" pageScale="1" pageWidth="850" pageHeight="1100" math="0" shadow="0">
      <root>
        <mxCell id="0" />
        <mxCell id="1" parent="0" />
        <mxCell id="JCHzmeOS0vF9A2jW9Tr--1" value="1" style="rounded=0;whiteSpace=wrap;html=1;" parent="1" vertex="1">
          <mxGeometry x="40" y="640" width="40" height="40" as="geometry" />
        </mxCell>
        <mxCell id="JCHzmeOS0vF9A2jW9Tr--2" value="2" style="rounded=0;whiteSpace=wrap;html=1;" parent="1" vertex="1">
          <mxGeometry x="80" y="640" width="40" height="40" as="geometry" />
        </mxCell>
        <mxCell id="JCHzmeOS0vF9A2jW9Tr--3" value="3" style="rounded=0;whiteSpace=wrap;html=1;" parent="1" vertex="1">
          <mxGeometry x="120" y="640" width="40" height="40" as="geometry" />
        </mxCell>
        <mxCell id="JCHzmeOS0vF9A2jW9Tr--5" value="4" style="rounded=0;whiteSpace=wrap;html=1;" parent="1" vertex="1">
          <mxGeometry x="160" y="640" width="40" height="40" as="geometry" />
        </mxCell>
        <mxCell id="JCHzmeOS0vF9A2jW9Tr--6" value="5" style="rounded=0;whiteSpace=wrap;html=1;" parent="1" vertex="1">
          <mxGeometry x="200" y="640" width="40" height="40" as="geometry" />
        </mxCell>
        <mxCell id="JCHzmeOS0vF9A2jW9Tr--7" value="10" style="rounded=0;whiteSpace=wrap;html=1;" parent="1" vertex="1">
          <mxGeometry x="200" y="680" width="40" height="40" as="geometry" />
        </mxCell>
        <mxCell id="JCHzmeOS0vF9A2jW9Tr--8" value="9" style="rounded=0;whiteSpace=wrap;html=1;" parent="1" vertex="1">
          <mxGeometry x="160" y="680" width="40" height="40" as="geometry" />
        </mxCell>
        <mxCell id="JCHzmeOS0vF9A2jW9Tr--9" value="8" style="rounded=0;whiteSpace=wrap;html=1;" parent="1" vertex="1">
          <mxGeometry x="120" y="680" width="40" height="40" as="geometry" />
        </mxCell>
        <mxCell id="JCHzmeOS0vF9A2jW9Tr--10" value="7" style="rounded=0;whiteSpace=wrap;html=1;" parent="1" vertex="1">
          <mxGeometry x="80" y="680" width="40" height="40" as="geometry" />
        </mxCell>
        <mxCell id="JCHzmeOS0vF9A2jW9Tr--11" value="6" style="rounded=0;whiteSpace=wrap;html=1;" parent="1" vertex="1">
          <mxGeometry x="40" y="680" width="40" height="40" as="geometry" />
        </mxCell>
        <mxCell id="JCHzmeOS0vF9A2jW9Tr--12" value="15" style="rounded=0;whiteSpace=wrap;html=1;" parent="1" vertex="1">
          <mxGeometry x="200" y="720" width="40" height="40" as="geometry" />
        </mxCell>
        <mxCell id="JCHzmeOS0vF9A2jW9Tr--13" value="14" style="rounded=0;whiteSpace=wrap;html=1;" parent="1" vertex="1">
          <mxGeometry x="160" y="720" width="40" height="40" as="geometry" />
        </mxCell>
        <mxCell id="JCHzmeOS0vF9A2jW9Tr--14" value="13" style="rounded=0;whiteSpace=wrap;html=1;" parent="1" vertex="1">
          <mxGeometry x="120" y="720" width="40" height="40" as="geometry" />
        </mxCell>
        <mxCell id="JCHzmeOS0vF9A2jW9Tr--15" value="12" style="rounded=0;whiteSpace=wrap;html=1;" parent="1" vertex="1">
          <mxGeometry x="80" y="720" width="40" height="40" as="geometry" />
        </mxCell>
        <mxCell id="JCHzmeOS0vF9A2jW9Tr--16" value="11" style="rounded=0;whiteSpace=wrap;html=1;" parent="1" vertex="1">
          <mxGeometry x="40" y="720" width="40" height="40" as="geometry" />
        </mxCell>
        <mxCell id="JCHzmeOS0vF9A2jW9Tr--17" value="20" style="rounded=0;whiteSpace=wrap;html=1;" parent="1" vertex="1">
          <mxGeometry x="200" y="760" width="40" height="40" as="geometry" />
        </mxCell>
        <mxCell id="JCHzmeOS0vF9A2jW9Tr--18" value="19" style="rounded=0;whiteSpace=wrap;html=1;" parent="1" vertex="1">
          <mxGeometry x="160" y="760" width="40" height="40" as="geometry" />
        </mxCell>
        <mxCell id="JCHzmeOS0vF9A2jW9Tr--19" value="18" style="rounded=0;whiteSpace=wrap;html=1;" parent="1" vertex="1">
          <mxGeometry x="120" y="760" width="40" height="40" as="geometry" />
        </mxCell>
        <mxCell id="JCHzmeOS0vF9A2jW9Tr--20" value="17" style="rounded=0;whiteSpace=wrap;html=1;" parent="1" vertex="1">
          <mxGeometry x="80" y="760" width="40" height="40" as="geometry" />
        </mxCell>
        <mxCell id="JCHzmeOS0vF9A2jW9Tr--21" value="16" style="rounded=0;whiteSpace=wrap;html=1;" parent="1" vertex="1">
          <mxGeometry x="40" y="760" width="40" height="40" as="geometry" />
        </mxCell>
        <mxCell id="JCHzmeOS0vF9A2jW9Tr--22" value="25" style="rounded=0;whiteSpace=wrap;html=1;" parent="1" vertex="1">
          <mxGeometry x="200" y="800" width="40" height="40" as="geometry" />
        </mxCell>
        <mxCell id="JCHzmeOS0vF9A2jW9Tr--23" value="24" style="rounded=0;whiteSpace=wrap;html=1;" parent="1" vertex="1">
          <mxGeometry x="160" y="800" width="40" height="40" as="geometry" />
        </mxCell>
        <mxCell id="JCHzmeOS0vF9A2jW9Tr--24" value="23" style="rounded=0;whiteSpace=wrap;html=1;" parent="1" vertex="1">
          <mxGeometry x="120" y="800" width="40" height="40" as="geometry" />
        </mxCell>
        <mxCell id="JCHzmeOS0vF9A2jW9Tr--25" value="22" style="rounded=0;whiteSpace=wrap;html=1;" parent="1" vertex="1">
          <mxGeometry x="80" y="800" width="40" height="40" as="geometry" />
        </mxCell>
        <mxCell id="JCHzmeOS0vF9A2jW9Tr--26" value="21" style="rounded=0;whiteSpace=wrap;html=1;" parent="1" vertex="1">
          <mxGeometry x="40" y="800" width="40" height="40" as="geometry" />
        </mxCell>
        <mxCell id="JCHzmeOS0vF9A2jW9Tr--27" value="" style="shape=flexArrow;endArrow=classic;html=1;rounded=0;" parent="1" edge="1">
          <mxGeometry width="50" height="50" relative="1" as="geometry">
            <mxPoint x="280" y="740" as="sourcePoint" />
            <mxPoint x="360" y="740" as="targetPoint" />
          </mxGeometry>
        </mxCell>
        <mxCell id="JCHzmeOS0vF9A2jW9Tr--28" value="0" style="rounded=0;whiteSpace=wrap;html=1;fillColor=#fff2cc;strokeColor=#d6b656;" parent="1" vertex="1">
          <mxGeometry x="400" y="640" width="40" height="40" as="geometry" />
        </mxCell>
        <mxCell id="JCHzmeOS0vF9A2jW9Tr--29" value="2" style="rounded=0;whiteSpace=wrap;html=1;fillColor=#fff2cc;strokeColor=#d6b656;" parent="1" vertex="1">
          <mxGeometry x="440" y="640" width="40" height="40" as="geometry" />
        </mxCell>
        <mxCell id="JCHzmeOS0vF9A2jW9Tr--30" value="3" style="rounded=0;whiteSpace=wrap;html=1;" parent="1" vertex="1">
          <mxGeometry x="480" y="640" width="40" height="40" as="geometry" />
        </mxCell>
        <mxCell id="JCHzmeOS0vF9A2jW9Tr--31" value="4" style="rounded=0;whiteSpace=wrap;html=1;fillColor=#dae8fc;strokeColor=#6c8ebf;" parent="1" vertex="1">
          <mxGeometry x="520" y="640" width="40" height="40" as="geometry" />
        </mxCell>
        <mxCell id="JCHzmeOS0vF9A2jW9Tr--32" value="0" style="rounded=0;whiteSpace=wrap;html=1;fillColor=#dae8fc;strokeColor=#6c8ebf;" parent="1" vertex="1">
          <mxGeometry x="560" y="640" width="40" height="40" as="geometry" />
        </mxCell>
        <mxCell id="JCHzmeOS0vF9A2jW9Tr--33" value="5" style="rounded=0;whiteSpace=wrap;html=1;fillColor=#dae8fc;strokeColor=#6c8ebf;" parent="1" vertex="1">
          <mxGeometry x="560" y="680" width="40" height="40" as="geometry" />
        </mxCell>
        <mxCell id="JCHzmeOS0vF9A2jW9Tr--34" value="9" style="rounded=0;whiteSpace=wrap;html=1;fillColor=#dae8fc;strokeColor=#6c8ebf;" parent="1" vertex="1">
          <mxGeometry x="520" y="680" width="40" height="40" as="geometry" />
        </mxCell>
        <mxCell id="JCHzmeOS0vF9A2jW9Tr--35" value="8" style="rounded=0;whiteSpace=wrap;html=1;" parent="1" vertex="1">
          <mxGeometry x="480" y="680" width="40" height="40" as="geometry" />
        </mxCell>
        <mxCell id="JCHzmeOS0vF9A2jW9Tr--36" value="7" style="rounded=0;whiteSpace=wrap;html=1;fillColor=#fff2cc;strokeColor=#d6b656;" parent="1" vertex="1">
          <mxGeometry x="440" y="680" width="40" height="40" as="geometry" />
        </mxCell>
        <mxCell id="JCHzmeOS0vF9A2jW9Tr--37" value="2" style="rounded=0;whiteSpace=wrap;html=1;fillColor=#fff2cc;strokeColor=#d6b656;" parent="1" vertex="1">
          <mxGeometry x="400" y="680" width="40" height="40" as="geometry" />
        </mxCell>
        <mxCell id="JCHzmeOS0vF9A2jW9Tr--38" value="10" style="rounded=0;whiteSpace=wrap;html=1;" parent="1" vertex="1">
          <mxGeometry x="560" y="720" width="40" height="40" as="geometry" />
        </mxCell>
        <mxCell id="JCHzmeOS0vF9A2jW9Tr--39" value="14" style="rounded=0;whiteSpace=wrap;html=1;" parent="1" vertex="1">
          <mxGeometry x="520" y="720" width="40" height="40" as="geometry" />
        </mxCell>
        <mxCell id="JCHzmeOS0vF9A2jW9Tr--40" value="13" style="rounded=0;whiteSpace=wrap;html=1;" parent="1" vertex="1">
          <mxGeometry x="480" y="720" width="40" height="40" as="geometry" />
        </mxCell>
        <mxCell id="JCHzmeOS0vF9A2jW9Tr--41" value="12" style="rounded=0;whiteSpace=wrap;html=1;" parent="1" vertex="1">
          <mxGeometry x="440" y="720" width="40" height="40" as="geometry" />
        </mxCell>
        <mxCell id="JCHzmeOS0vF9A2jW9Tr--42" value="7" style="rounded=0;whiteSpace=wrap;html=1;" parent="1" vertex="1">
          <mxGeometry x="400" y="720" width="40" height="40" as="geometry" />
        </mxCell>
        <mxCell id="JCHzmeOS0vF9A2jW9Tr--43" value="15" style="rounded=0;whiteSpace=wrap;html=1;fillColor=#ffe6cc;strokeColor=#d79b00;" parent="1" vertex="1">
          <mxGeometry x="560" y="760" width="40" height="40" as="geometry" />
        </mxCell>
        <mxCell id="JCHzmeOS0vF9A2jW9Tr--44" value="19" style="rounded=0;whiteSpace=wrap;html=1;fillColor=#ffe6cc;strokeColor=#d79b00;" parent="1" vertex="1">
          <mxGeometry x="520" y="760" width="40" height="40" as="geometry" />
        </mxCell>
        <mxCell id="JCHzmeOS0vF9A2jW9Tr--45" value="18" style="rounded=0;whiteSpace=wrap;html=1;" parent="1" vertex="1">
          <mxGeometry x="480" y="760" width="40" height="40" as="geometry" />
        </mxCell>
        <mxCell id="JCHzmeOS0vF9A2jW9Tr--46" value="17" style="rounded=0;whiteSpace=wrap;html=1;fillColor=#d5e8d4;strokeColor=#82b366;" parent="1" vertex="1">
          <mxGeometry x="440" y="760" width="40" height="40" as="geometry" />
        </mxCell>
        <mxCell id="JCHzmeOS0vF9A2jW9Tr--47" value="12" style="rounded=0;whiteSpace=wrap;html=1;fillColor=#d5e8d4;strokeColor=#82b366;" parent="1" vertex="1">
          <mxGeometry x="400" y="760" width="40" height="40" as="geometry" />
        </mxCell>
        <mxCell id="JCHzmeOS0vF9A2jW9Tr--48" value="0" style="rounded=0;whiteSpace=wrap;html=1;fillColor=#ffe6cc;strokeColor=#d79b00;" parent="1" vertex="1">
          <mxGeometry x="560" y="800" width="40" height="40" as="geometry" />
        </mxCell>
        <mxCell id="JCHzmeOS0vF9A2jW9Tr--49" value="19" style="rounded=0;whiteSpace=wrap;html=1;fillColor=#ffe6cc;strokeColor=#d79b00;" parent="1" vertex="1">
          <mxGeometry x="520" y="800" width="40" height="40" as="geometry" />
        </mxCell>
        <mxCell id="JCHzmeOS0vF9A2jW9Tr--50" value="18" style="rounded=0;whiteSpace=wrap;html=1;" parent="1" vertex="1">
          <mxGeometry x="480" y="800" width="40" height="40" as="geometry" />
        </mxCell>
        <mxCell id="JCHzmeOS0vF9A2jW9Tr--51" value="17" style="rounded=0;whiteSpace=wrap;html=1;fillColor=#d5e8d4;strokeColor=#82b366;" parent="1" vertex="1">
          <mxGeometry x="440" y="800" width="40" height="40" as="geometry" />
        </mxCell>
        <mxCell id="JCHzmeOS0vF9A2jW9Tr--52" value="0" style="rounded=0;whiteSpace=wrap;html=1;fillColor=#d5e8d4;strokeColor=#82b366;" parent="1" vertex="1">
          <mxGeometry x="400" y="800" width="40" height="40" as="geometry" />
        </mxCell>
        <mxCell id="JCHzmeOS0vF9A2jW9Tr--53" value="median filter 3x3" style="text;html=1;align=center;verticalAlign=middle;whiteSpace=wrap;rounded=0;" parent="1" vertex="1">
          <mxGeometry x="280" y="700" width="60" height="30" as="geometry" />
        </mxCell>
        <mxCell id="JCHzmeOS0vF9A2jW9Tr--54" value="" style="shape=flexArrow;endArrow=classic;html=1;rounded=0;" parent="1" edge="1">
          <mxGeometry width="50" height="50" relative="1" as="geometry">
            <mxPoint x="640" y="740" as="sourcePoint" />
            <mxPoint x="720" y="740" as="targetPoint" />
          </mxGeometry>
        </mxCell>
        <mxCell id="JCHzmeOS0vF9A2jW9Tr--55" value="MRELBP_CI_R2" style="text;html=1;align=center;verticalAlign=middle;whiteSpace=wrap;rounded=0;" parent="1" vertex="1">
          <mxGeometry x="640" y="700" width="60" height="30" as="geometry" />
        </mxCell>
        <mxCell id="JCHzmeOS0vF9A2jW9Tr--56" value="0" style="rounded=0;whiteSpace=wrap;html=1;" parent="1" vertex="1">
          <mxGeometry x="750" y="640" width="40" height="40" as="geometry" />
        </mxCell>
        <mxCell id="JCHzmeOS0vF9A2jW9Tr--57" value="2" style="rounded=0;whiteSpace=wrap;html=1;" parent="1" vertex="1">
          <mxGeometry x="790" y="640" width="40" height="40" as="geometry" />
        </mxCell>
        <mxCell id="JCHzmeOS0vF9A2jW9Tr--58" value="3" style="rounded=0;whiteSpace=wrap;html=1;" parent="1" vertex="1">
          <mxGeometry x="830" y="640" width="40" height="40" as="geometry" />
        </mxCell>
        <mxCell id="JCHzmeOS0vF9A2jW9Tr--59" value="4" style="rounded=0;whiteSpace=wrap;html=1;" parent="1" vertex="1">
          <mxGeometry x="870" y="640" width="40" height="40" as="geometry" />
        </mxCell>
        <mxCell id="JCHzmeOS0vF9A2jW9Tr--60" value="0" style="rounded=0;whiteSpace=wrap;html=1;" parent="1" vertex="1">
          <mxGeometry x="910" y="640" width="40" height="40" as="geometry" />
        </mxCell>
        <mxCell id="JCHzmeOS0vF9A2jW9Tr--61" value="5" style="rounded=0;whiteSpace=wrap;html=1;" parent="1" vertex="1">
          <mxGeometry x="910" y="680" width="40" height="40" as="geometry" />
        </mxCell>
        <mxCell id="JCHzmeOS0vF9A2jW9Tr--62" value="9" style="rounded=0;whiteSpace=wrap;html=1;" parent="1" vertex="1">
          <mxGeometry x="870" y="680" width="40" height="40" as="geometry" />
        </mxCell>
        <mxCell id="JCHzmeOS0vF9A2jW9Tr--63" value="8" style="rounded=0;whiteSpace=wrap;html=1;" parent="1" vertex="1">
          <mxGeometry x="830" y="680" width="40" height="40" as="geometry" />
        </mxCell>
        <mxCell id="JCHzmeOS0vF9A2jW9Tr--64" value="7" style="rounded=0;whiteSpace=wrap;html=1;" parent="1" vertex="1">
          <mxGeometry x="790" y="680" width="40" height="40" as="geometry" />
        </mxCell>
        <mxCell id="JCHzmeOS0vF9A2jW9Tr--65" value="2" style="rounded=0;whiteSpace=wrap;html=1;" parent="1" vertex="1">
          <mxGeometry x="750" y="680" width="40" height="40" as="geometry" />
        </mxCell>
        <mxCell id="JCHzmeOS0vF9A2jW9Tr--66" value="10" style="rounded=0;whiteSpace=wrap;html=1;" parent="1" vertex="1">
          <mxGeometry x="910" y="720" width="40" height="40" as="geometry" />
        </mxCell>
        <mxCell id="JCHzmeOS0vF9A2jW9Tr--67" value="14" style="rounded=0;whiteSpace=wrap;html=1;" parent="1" vertex="1">
          <mxGeometry x="870" y="720" width="40" height="40" as="geometry" />
        </mxCell>
        <mxCell id="JCHzmeOS0vF9A2jW9Tr--68" value="13" style="rounded=0;whiteSpace=wrap;html=1;" parent="1" vertex="1">
          <mxGeometry x="830" y="720" width="40" height="40" as="geometry" />
        </mxCell>
        <mxCell id="JCHzmeOS0vF9A2jW9Tr--69" value="12" style="rounded=0;whiteSpace=wrap;html=1;" parent="1" vertex="1">
          <mxGeometry x="790" y="720" width="40" height="40" as="geometry" />
        </mxCell>
        <mxCell id="JCHzmeOS0vF9A2jW9Tr--70" value="7" style="rounded=0;whiteSpace=wrap;html=1;" parent="1" vertex="1">
          <mxGeometry x="750" y="720" width="40" height="40" as="geometry" />
        </mxCell>
        <mxCell id="JCHzmeOS0vF9A2jW9Tr--71" value="15" style="rounded=0;whiteSpace=wrap;html=1;" parent="1" vertex="1">
          <mxGeometry x="910" y="760" width="40" height="40" as="geometry" />
        </mxCell>
        <mxCell id="JCHzmeOS0vF9A2jW9Tr--72" value="19" style="rounded=0;whiteSpace=wrap;html=1;" parent="1" vertex="1">
          <mxGeometry x="870" y="760" width="40" height="40" as="geometry" />
        </mxCell>
        <mxCell id="JCHzmeOS0vF9A2jW9Tr--73" value="18" style="rounded=0;whiteSpace=wrap;html=1;" parent="1" vertex="1">
          <mxGeometry x="830" y="760" width="40" height="40" as="geometry" />
        </mxCell>
        <mxCell id="JCHzmeOS0vF9A2jW9Tr--74" value="17" style="rounded=0;whiteSpace=wrap;html=1;" parent="1" vertex="1">
          <mxGeometry x="790" y="760" width="40" height="40" as="geometry" />
        </mxCell>
        <mxCell id="JCHzmeOS0vF9A2jW9Tr--75" value="12" style="rounded=0;whiteSpace=wrap;html=1;" parent="1" vertex="1">
          <mxGeometry x="750" y="760" width="40" height="40" as="geometry" />
        </mxCell>
        <mxCell id="JCHzmeOS0vF9A2jW9Tr--76" value="0" style="rounded=0;whiteSpace=wrap;html=1;" parent="1" vertex="1">
          <mxGeometry x="910" y="800" width="40" height="40" as="geometry" />
        </mxCell>
        <mxCell id="JCHzmeOS0vF9A2jW9Tr--77" value="19" style="rounded=0;whiteSpace=wrap;html=1;" parent="1" vertex="1">
          <mxGeometry x="870" y="800" width="40" height="40" as="geometry" />
        </mxCell>
        <mxCell id="JCHzmeOS0vF9A2jW9Tr--78" value="18" style="rounded=0;whiteSpace=wrap;html=1;" parent="1" vertex="1">
          <mxGeometry x="830" y="800" width="40" height="40" as="geometry" />
        </mxCell>
        <mxCell id="JCHzmeOS0vF9A2jW9Tr--79" value="17" style="rounded=0;whiteSpace=wrap;html=1;" parent="1" vertex="1">
          <mxGeometry x="790" y="800" width="40" height="40" as="geometry" />
        </mxCell>
        <mxCell id="JCHzmeOS0vF9A2jW9Tr--80" value="0" style="rounded=0;whiteSpace=wrap;html=1;" parent="1" vertex="1">
          <mxGeometry x="750" y="800" width="40" height="40" as="geometry" />
        </mxCell>
        <mxCell id="JCHzmeOS0vF9A2jW9Tr--81" value="0" style="rounded=0;whiteSpace=wrap;html=1;" parent="1" vertex="1">
          <mxGeometry x="640" y="960" width="40" height="40" as="geometry" />
        </mxCell>
        <mxCell id="JCHzmeOS0vF9A2jW9Tr--82" value="2" style="rounded=0;whiteSpace=wrap;html=1;" parent="1" vertex="1">
          <mxGeometry x="680" y="960" width="40" height="40" as="geometry" />
        </mxCell>
        <mxCell id="JCHzmeOS0vF9A2jW9Tr--85" value="7" style="rounded=0;whiteSpace=wrap;html=1;" parent="1" vertex="1">
          <mxGeometry x="680" y="1000" width="40" height="40" as="geometry" />
        </mxCell>
        <mxCell id="JCHzmeOS0vF9A2jW9Tr--86" value="2" style="rounded=0;whiteSpace=wrap;html=1;" parent="1" vertex="1">
          <mxGeometry x="640" y="1000" width="40" height="40" as="geometry" />
        </mxCell>
        <mxCell id="JCHzmeOS0vF9A2jW9Tr--90" value="0" style="rounded=0;whiteSpace=wrap;html=1;" parent="1" vertex="1">
          <mxGeometry x="640" y="920" width="40" height="40" as="geometry" />
        </mxCell>
        <mxCell id="JCHzmeOS0vF9A2jW9Tr--91" value="0" style="rounded=0;whiteSpace=wrap;html=1;" parent="1" vertex="1">
          <mxGeometry x="680" y="920" width="40" height="40" as="geometry" />
        </mxCell>
        <mxCell id="JCHzmeOS0vF9A2jW9Tr--96" value="0" style="rounded=0;whiteSpace=wrap;html=1;" parent="1" vertex="1">
          <mxGeometry x="600" y="960" width="40" height="40" as="geometry" />
        </mxCell>
        <mxCell id="JCHzmeOS0vF9A2jW9Tr--97" value="0" style="rounded=0;whiteSpace=wrap;html=1;" parent="1" vertex="1">
          <mxGeometry x="600" y="1000" width="40" height="40" as="geometry" />
        </mxCell>
        <mxCell id="JCHzmeOS0vF9A2jW9Tr--99" value="0" style="rounded=0;whiteSpace=wrap;html=1;" parent="1" vertex="1">
          <mxGeometry x="600" y="920" width="40" height="40" as="geometry" />
        </mxCell>
        <mxCell id="JCHzmeOS0vF9A2jW9Tr--106" value="" style="endArrow=classic;html=1;rounded=0;exitX=1;exitY=1;exitDx=0;exitDy=0;" parent="1" edge="1">
          <mxGeometry width="50" height="50" relative="1" as="geometry">
            <mxPoint x="760" y="960" as="sourcePoint" />
            <mxPoint x="860" y="960" as="targetPoint" />
          </mxGeometry>
        </mxCell>
        <mxCell id="JCHzmeOS0vF9A2jW9Tr--107" value="mu = 2 + 2+ 7 = 11" style="text;html=1;align=center;verticalAlign=middle;whiteSpace=wrap;rounded=0;" parent="1" vertex="1">
          <mxGeometry x="790" y="920" width="60" height="30" as="geometry" />
        </mxCell>
        <mxCell id="JCHzmeOS0vF9A2jW9Tr--108" value="0" style="rounded=0;whiteSpace=wrap;html=1;" parent="1" vertex="1">
          <mxGeometry x="920" y="960" width="40" height="40" as="geometry" />
        </mxCell>
        <mxCell id="JCHzmeOS0vF9A2jW9Tr--109" value="1" style="rounded=0;whiteSpace=wrap;html=1;" parent="1" vertex="1">
          <mxGeometry x="960" y="960" width="40" height="40" as="geometry" />
        </mxCell>
        <mxCell id="JCHzmeOS0vF9A2jW9Tr--110" value="1" style="rounded=0;whiteSpace=wrap;html=1;" parent="1" vertex="1">
          <mxGeometry x="960" y="1000" width="40" height="40" as="geometry" />
        </mxCell>
        <mxCell id="JCHzmeOS0vF9A2jW9Tr--111" value="1" style="rounded=0;whiteSpace=wrap;html=1;" parent="1" vertex="1">
          <mxGeometry x="920" y="1000" width="40" height="40" as="geometry" />
        </mxCell>
        <mxCell id="JCHzmeOS0vF9A2jW9Tr--112" value="0" style="rounded=0;whiteSpace=wrap;html=1;" parent="1" vertex="1">
          <mxGeometry x="920" y="920" width="40" height="40" as="geometry" />
        </mxCell>
        <mxCell id="JCHzmeOS0vF9A2jW9Tr--113" value="0" style="rounded=0;whiteSpace=wrap;html=1;" parent="1" vertex="1">
          <mxGeometry x="960" y="920" width="40" height="40" as="geometry" />
        </mxCell>
        <mxCell id="JCHzmeOS0vF9A2jW9Tr--114" value="0" style="rounded=0;whiteSpace=wrap;html=1;" parent="1" vertex="1">
          <mxGeometry x="880" y="960" width="40" height="40" as="geometry" />
        </mxCell>
        <mxCell id="JCHzmeOS0vF9A2jW9Tr--115" value="0" style="rounded=0;whiteSpace=wrap;html=1;" parent="1" vertex="1">
          <mxGeometry x="880" y="1000" width="40" height="40" as="geometry" />
        </mxCell>
        <mxCell id="JCHzmeOS0vF9A2jW9Tr--116" value="0" style="rounded=0;whiteSpace=wrap;html=1;" parent="1" vertex="1">
          <mxGeometry x="880" y="920" width="40" height="40" as="geometry" />
        </mxCell>
        <mxCell id="4x7t9RlnBluBa14jZRlf-31" value="" style="group" parent="1" vertex="1" connectable="0">
          <mxGeometry x="160" y="910" width="380" height="280" as="geometry" />
        </mxCell>
        <mxCell id="4x7t9RlnBluBa14jZRlf-5" value="C" style="text;html=1;align=center;verticalAlign=middle;whiteSpace=wrap;rounded=0;" parent="4x7t9RlnBluBa14jZRlf-31" vertex="1">
          <mxGeometry x="40" y="220" width="60" height="30" as="geometry" />
        </mxCell>
        <mxCell id="4x7t9RlnBluBa14jZRlf-6" value="D" style="text;html=1;align=center;verticalAlign=middle;whiteSpace=wrap;rounded=0;" parent="4x7t9RlnBluBa14jZRlf-31" vertex="1">
          <mxGeometry x="280" y="220" width="60" height="30" as="geometry" />
        </mxCell>
        <mxCell id="4x7t9RlnBluBa14jZRlf-7" value="B" style="text;html=1;align=center;verticalAlign=middle;whiteSpace=wrap;rounded=0;" parent="4x7t9RlnBluBa14jZRlf-31" vertex="1">
          <mxGeometry x="280" y="15" width="60" height="30" as="geometry" />
        </mxCell>
        <mxCell id="4x7t9RlnBluBa14jZRlf-9" value="A" style="text;html=1;align=center;verticalAlign=middle;whiteSpace=wrap;rounded=0;" parent="4x7t9RlnBluBa14jZRlf-31" vertex="1">
          <mxGeometry x="40" y="15" width="60" height="30" as="geometry" />
        </mxCell>
        <mxCell id="4x7t9RlnBluBa14jZRlf-10" value="" style="endArrow=oval;html=1;rounded=0;startArrow=oval;startFill=0;endFill=0;" parent="4x7t9RlnBluBa14jZRlf-31" edge="1">
          <mxGeometry width="50" height="50" relative="1" as="geometry">
            <mxPoint x="80" y="50" as="sourcePoint" />
            <mxPoint x="280" y="50" as="targetPoint" />
          </mxGeometry>
        </mxCell>
        <mxCell id="4x7t9RlnBluBa14jZRlf-11" value="" style="endArrow=oval;html=1;rounded=0;startArrow=oval;startFill=0;endFill=0;" parent="4x7t9RlnBluBa14jZRlf-31" edge="1">
          <mxGeometry width="50" height="50" relative="1" as="geometry">
            <mxPoint x="280" y="210" as="sourcePoint" />
            <mxPoint x="280" y="50" as="targetPoint" />
          </mxGeometry>
        </mxCell>
        <mxCell id="4x7t9RlnBluBa14jZRlf-12" value="" style="endArrow=oval;html=1;rounded=0;startArrow=oval;startFill=0;endFill=0;" parent="4x7t9RlnBluBa14jZRlf-31" edge="1">
          <mxGeometry width="50" height="50" relative="1" as="geometry">
            <mxPoint x="280" y="210" as="sourcePoint" />
            <mxPoint x="80" y="210" as="targetPoint" />
          </mxGeometry>
        </mxCell>
        <mxCell id="4x7t9RlnBluBa14jZRlf-13" value="" style="endArrow=oval;html=1;rounded=0;startArrow=oval;startFill=0;endFill=0;" parent="4x7t9RlnBluBa14jZRlf-31" edge="1">
          <mxGeometry width="50" height="50" relative="1" as="geometry">
            <mxPoint x="80" y="50" as="sourcePoint" />
            <mxPoint x="80" y="210" as="targetPoint" />
          </mxGeometry>
        </mxCell>
        <mxCell id="4x7t9RlnBluBa14jZRlf-17" value="" style="endArrow=none;dashed=1;html=1;rounded=0;startArrow=oval;startFill=0;" parent="4x7t9RlnBluBa14jZRlf-31" edge="1">
          <mxGeometry width="50" height="50" relative="1" as="geometry">
            <mxPoint x="180" y="130" as="sourcePoint" />
            <mxPoint x="180" y="50" as="targetPoint" />
          </mxGeometry>
        </mxCell>
        <mxCell id="4x7t9RlnBluBa14jZRlf-18" value="" style="endArrow=oval;dashed=1;html=1;rounded=0;endFill=0;" parent="4x7t9RlnBluBa14jZRlf-31" edge="1">
          <mxGeometry width="50" height="50" relative="1" as="geometry">
            <mxPoint x="80" y="130" as="sourcePoint" />
            <mxPoint x="180" y="130" as="targetPoint" />
          </mxGeometry>
        </mxCell>
        <mxCell id="4x7t9RlnBluBa14jZRlf-24" value="a" style="text;html=1;align=center;verticalAlign=middle;whiteSpace=wrap;rounded=0;" parent="4x7t9RlnBluBa14jZRlf-31" vertex="1">
          <mxGeometry x="100" y="100" width="60" height="30" as="geometry" />
        </mxCell>
        <mxCell id="4x7t9RlnBluBa14jZRlf-25" value="b" style="text;html=1;align=center;verticalAlign=middle;whiteSpace=wrap;rounded=0;" parent="4x7t9RlnBluBa14jZRlf-31" vertex="1">
          <mxGeometry x="180" y="80" width="60" height="30" as="geometry" />
        </mxCell>
        <mxCell id="4x7t9RlnBluBa14jZRlf-26" value="(x1, y1)" style="text;html=1;align=center;verticalAlign=middle;whiteSpace=wrap;rounded=0;" parent="4x7t9RlnBluBa14jZRlf-31" vertex="1">
          <mxGeometry width="60" height="30" as="geometry" />
        </mxCell>
        <mxCell id="4x7t9RlnBluBa14jZRlf-28" value="(x2, y2)" style="text;html=1;align=center;verticalAlign=middle;whiteSpace=wrap;rounded=0;" parent="4x7t9RlnBluBa14jZRlf-31" vertex="1">
          <mxGeometry x="320" width="60" height="30" as="geometry" />
        </mxCell>
        <mxCell id="4x7t9RlnBluBa14jZRlf-29" value="(x2, y1)" style="text;html=1;align=center;verticalAlign=middle;whiteSpace=wrap;rounded=0;" parent="4x7t9RlnBluBa14jZRlf-31" vertex="1">
          <mxGeometry y="240" width="60" height="30" as="geometry" />
        </mxCell>
        <mxCell id="4x7t9RlnBluBa14jZRlf-30" value="(x2, y2)" style="text;html=1;align=center;verticalAlign=middle;whiteSpace=wrap;rounded=0;" parent="4x7t9RlnBluBa14jZRlf-31" vertex="1">
          <mxGeometry x="320" y="250" width="60" height="30" as="geometry" />
        </mxCell>
        <mxCell id="4x7t9RlnBluBa14jZRlf-32" value="(x, y)" style="text;html=1;align=center;verticalAlign=middle;whiteSpace=wrap;rounded=0;" parent="4x7t9RlnBluBa14jZRlf-31" vertex="1">
          <mxGeometry x="170" y="130" width="60" height="30" as="geometry" />
        </mxCell>
        <mxCell id="wfANbKLyDezjRCKtQaRJ-3" value="" style="group" parent="1" vertex="1" connectable="0">
          <mxGeometry x="200" y="160" width="40" height="40" as="geometry" />
        </mxCell>
        <mxCell id="wfANbKLyDezjRCKtQaRJ-1" value="" style="rounded=0;whiteSpace=wrap;html=1;" parent="wfANbKLyDezjRCKtQaRJ-3" vertex="1">
          <mxGeometry width="40" height="40" as="geometry" />
        </mxCell>
        <mxCell id="wfANbKLyDezjRCKtQaRJ-2" value="" style="triangle;whiteSpace=wrap;html=1;direction=north;" parent="wfANbKLyDezjRCKtQaRJ-3" vertex="1">
          <mxGeometry x="12.5" y="30" width="15" height="10" as="geometry" />
        </mxCell>
        <mxCell id="wfANbKLyDezjRCKtQaRJ-4" value="" style="group" parent="1" vertex="1" connectable="0">
          <mxGeometry x="200" y="200" width="40" height="40" as="geometry" />
        </mxCell>
        <mxCell id="wfANbKLyDezjRCKtQaRJ-5" value="" style="rounded=0;whiteSpace=wrap;html=1;" parent="wfANbKLyDezjRCKtQaRJ-4" vertex="1">
          <mxGeometry width="40" height="40" as="geometry" />
        </mxCell>
        <mxCell id="wfANbKLyDezjRCKtQaRJ-6" value="" style="triangle;whiteSpace=wrap;html=1;direction=north;" parent="wfANbKLyDezjRCKtQaRJ-4" vertex="1">
          <mxGeometry x="12.5" y="30" width="15" height="10" as="geometry" />
        </mxCell>
        <mxCell id="wfANbKLyDezjRCKtQaRJ-7" value="" style="group" parent="1" vertex="1" connectable="0">
          <mxGeometry x="200" y="240" width="40" height="40" as="geometry" />
        </mxCell>
        <mxCell id="wfANbKLyDezjRCKtQaRJ-8" value="" style="rounded=0;whiteSpace=wrap;html=1;" parent="wfANbKLyDezjRCKtQaRJ-7" vertex="1">
          <mxGeometry width="40" height="40" as="geometry" />
        </mxCell>
        <mxCell id="wfANbKLyDezjRCKtQaRJ-9" value="" style="triangle;whiteSpace=wrap;html=1;direction=north;" parent="wfANbKLyDezjRCKtQaRJ-7" vertex="1">
          <mxGeometry x="12.5" y="30" width="15" height="10" as="geometry" />
        </mxCell>
        <mxCell id="wfANbKLyDezjRCKtQaRJ-10" value="" style="group" parent="1" vertex="1" connectable="0">
          <mxGeometry x="200" y="280" width="40" height="40" as="geometry" />
        </mxCell>
        <mxCell id="wfANbKLyDezjRCKtQaRJ-11" value="" style="rounded=0;whiteSpace=wrap;html=1;" parent="wfANbKLyDezjRCKtQaRJ-10" vertex="1">
          <mxGeometry width="40" height="40" as="geometry" />
        </mxCell>
        <mxCell id="wfANbKLyDezjRCKtQaRJ-12" value="" style="triangle;whiteSpace=wrap;html=1;direction=north;" parent="wfANbKLyDezjRCKtQaRJ-10" vertex="1">
          <mxGeometry x="12.5" y="30" width="15" height="10" as="geometry" />
        </mxCell>
        <mxCell id="wfANbKLyDezjRCKtQaRJ-14" value="" style="group" parent="1" vertex="1" connectable="0">
          <mxGeometry x="200" y="320" width="40" height="40" as="geometry" />
        </mxCell>
        <mxCell id="wfANbKLyDezjRCKtQaRJ-15" value="" style="rounded=0;whiteSpace=wrap;html=1;" parent="wfANbKLyDezjRCKtQaRJ-14" vertex="1">
          <mxGeometry width="40" height="40" as="geometry" />
        </mxCell>
        <mxCell id="wfANbKLyDezjRCKtQaRJ-16" value="" style="triangle;whiteSpace=wrap;html=1;direction=north;" parent="wfANbKLyDezjRCKtQaRJ-14" vertex="1">
          <mxGeometry x="12.5" y="30" width="15" height="10" as="geometry" />
        </mxCell>
        <mxCell id="wfANbKLyDezjRCKtQaRJ-53" value="" style="group" parent="1" vertex="1" connectable="0">
          <mxGeometry x="280" y="160" width="40" height="40" as="geometry" />
        </mxCell>
        <mxCell id="wfANbKLyDezjRCKtQaRJ-54" value="" style="rounded=0;whiteSpace=wrap;html=1;" parent="wfANbKLyDezjRCKtQaRJ-53" vertex="1">
          <mxGeometry width="40" height="40" as="geometry" />
        </mxCell>
        <mxCell id="wfANbKLyDezjRCKtQaRJ-55" value="" style="triangle;whiteSpace=wrap;html=1;direction=north;" parent="wfANbKLyDezjRCKtQaRJ-53" vertex="1">
          <mxGeometry x="12.5" y="30" width="15" height="10" as="geometry" />
        </mxCell>
        <mxCell id="wfANbKLyDezjRCKtQaRJ-56" value="" style="group" parent="1" vertex="1" connectable="0">
          <mxGeometry x="280" y="200" width="40" height="40" as="geometry" />
        </mxCell>
        <mxCell id="wfANbKLyDezjRCKtQaRJ-57" value="" style="rounded=0;whiteSpace=wrap;html=1;" parent="wfANbKLyDezjRCKtQaRJ-56" vertex="1">
          <mxGeometry width="40" height="40" as="geometry" />
        </mxCell>
        <mxCell id="wfANbKLyDezjRCKtQaRJ-58" value="" style="triangle;whiteSpace=wrap;html=1;direction=north;" parent="wfANbKLyDezjRCKtQaRJ-56" vertex="1">
          <mxGeometry x="12.5" y="30" width="15" height="10" as="geometry" />
        </mxCell>
        <mxCell id="wfANbKLyDezjRCKtQaRJ-59" value="" style="group" parent="1" vertex="1" connectable="0">
          <mxGeometry x="280" y="240" width="40" height="40" as="geometry" />
        </mxCell>
        <mxCell id="wfANbKLyDezjRCKtQaRJ-60" value="" style="rounded=0;whiteSpace=wrap;html=1;" parent="wfANbKLyDezjRCKtQaRJ-59" vertex="1">
          <mxGeometry width="40" height="40" as="geometry" />
        </mxCell>
        <mxCell id="wfANbKLyDezjRCKtQaRJ-61" value="" style="triangle;whiteSpace=wrap;html=1;direction=north;" parent="wfANbKLyDezjRCKtQaRJ-59" vertex="1">
          <mxGeometry x="12.5" y="30" width="15" height="10" as="geometry" />
        </mxCell>
        <mxCell id="wfANbKLyDezjRCKtQaRJ-62" value="" style="group" parent="1" vertex="1" connectable="0">
          <mxGeometry x="280" y="280" width="40" height="40" as="geometry" />
        </mxCell>
        <mxCell id="wfANbKLyDezjRCKtQaRJ-63" value="" style="rounded=0;whiteSpace=wrap;html=1;" parent="wfANbKLyDezjRCKtQaRJ-62" vertex="1">
          <mxGeometry width="40" height="40" as="geometry" />
        </mxCell>
        <mxCell id="wfANbKLyDezjRCKtQaRJ-64" value="" style="triangle;whiteSpace=wrap;html=1;direction=north;" parent="wfANbKLyDezjRCKtQaRJ-62" vertex="1">
          <mxGeometry x="12.5" y="30" width="15" height="10" as="geometry" />
        </mxCell>
        <mxCell id="wfANbKLyDezjRCKtQaRJ-65" value="" style="group" parent="1" vertex="1" connectable="0">
          <mxGeometry x="280" y="320" width="40" height="40" as="geometry" />
        </mxCell>
        <mxCell id="wfANbKLyDezjRCKtQaRJ-66" value="" style="rounded=0;whiteSpace=wrap;html=1;" parent="wfANbKLyDezjRCKtQaRJ-65" vertex="1">
          <mxGeometry width="40" height="40" as="geometry" />
        </mxCell>
        <mxCell id="wfANbKLyDezjRCKtQaRJ-67" value="" style="triangle;whiteSpace=wrap;html=1;direction=north;" parent="wfANbKLyDezjRCKtQaRJ-65" vertex="1">
          <mxGeometry x="12.5" y="30" width="15" height="10" as="geometry" />
        </mxCell>
        <mxCell id="wfANbKLyDezjRCKtQaRJ-68" value="" style="group" parent="1" vertex="1" connectable="0">
          <mxGeometry x="360" y="160" width="40" height="40" as="geometry" />
        </mxCell>
        <mxCell id="wfANbKLyDezjRCKtQaRJ-69" value="" style="rounded=0;whiteSpace=wrap;html=1;" parent="wfANbKLyDezjRCKtQaRJ-68" vertex="1">
          <mxGeometry width="40" height="40" as="geometry" />
        </mxCell>
        <mxCell id="wfANbKLyDezjRCKtQaRJ-70" value="" style="triangle;whiteSpace=wrap;html=1;direction=north;" parent="wfANbKLyDezjRCKtQaRJ-68" vertex="1">
          <mxGeometry x="12.5" y="30" width="15" height="10" as="geometry" />
        </mxCell>
        <mxCell id="wfANbKLyDezjRCKtQaRJ-71" value="" style="group" parent="1" vertex="1" connectable="0">
          <mxGeometry x="360" y="200" width="40" height="40" as="geometry" />
        </mxCell>
        <mxCell id="wfANbKLyDezjRCKtQaRJ-72" value="" style="rounded=0;whiteSpace=wrap;html=1;" parent="wfANbKLyDezjRCKtQaRJ-71" vertex="1">
          <mxGeometry width="40" height="40" as="geometry" />
        </mxCell>
        <mxCell id="wfANbKLyDezjRCKtQaRJ-73" value="" style="triangle;whiteSpace=wrap;html=1;direction=north;" parent="wfANbKLyDezjRCKtQaRJ-71" vertex="1">
          <mxGeometry x="12.5" y="30" width="15" height="10" as="geometry" />
        </mxCell>
        <mxCell id="wfANbKLyDezjRCKtQaRJ-74" value="" style="group" parent="1" vertex="1" connectable="0">
          <mxGeometry x="360" y="240" width="40" height="40" as="geometry" />
        </mxCell>
        <mxCell id="wfANbKLyDezjRCKtQaRJ-75" value="" style="rounded=0;whiteSpace=wrap;html=1;" parent="wfANbKLyDezjRCKtQaRJ-74" vertex="1">
          <mxGeometry width="40" height="40" as="geometry" />
        </mxCell>
        <mxCell id="wfANbKLyDezjRCKtQaRJ-76" value="" style="triangle;whiteSpace=wrap;html=1;direction=north;" parent="wfANbKLyDezjRCKtQaRJ-74" vertex="1">
          <mxGeometry x="12.5" y="30" width="15" height="10" as="geometry" />
        </mxCell>
        <mxCell id="wfANbKLyDezjRCKtQaRJ-77" value="" style="group" parent="1" vertex="1" connectable="0">
          <mxGeometry x="360" y="280" width="40" height="40" as="geometry" />
        </mxCell>
        <mxCell id="wfANbKLyDezjRCKtQaRJ-78" value="" style="rounded=0;whiteSpace=wrap;html=1;" parent="wfANbKLyDezjRCKtQaRJ-77" vertex="1">
          <mxGeometry width="40" height="40" as="geometry" />
        </mxCell>
        <mxCell id="wfANbKLyDezjRCKtQaRJ-79" value="" style="triangle;whiteSpace=wrap;html=1;direction=north;" parent="wfANbKLyDezjRCKtQaRJ-77" vertex="1">
          <mxGeometry x="12.5" y="30" width="15" height="10" as="geometry" />
        </mxCell>
        <mxCell id="wfANbKLyDezjRCKtQaRJ-80" value="" style="group" parent="1" vertex="1" connectable="0">
          <mxGeometry x="360" y="320" width="40" height="40" as="geometry" />
        </mxCell>
        <mxCell id="wfANbKLyDezjRCKtQaRJ-81" value="" style="rounded=0;whiteSpace=wrap;html=1;" parent="wfANbKLyDezjRCKtQaRJ-80" vertex="1">
          <mxGeometry width="40" height="40" as="geometry" />
        </mxCell>
        <mxCell id="wfANbKLyDezjRCKtQaRJ-82" value="" style="triangle;whiteSpace=wrap;html=1;direction=north;" parent="wfANbKLyDezjRCKtQaRJ-80" vertex="1">
          <mxGeometry x="12.5" y="30" width="15" height="10" as="geometry" />
        </mxCell>
        <mxCell id="wfANbKLyDezjRCKtQaRJ-83" value="" style="group" parent="1" vertex="1" connectable="0">
          <mxGeometry x="440" y="160" width="40" height="40" as="geometry" />
        </mxCell>
        <mxCell id="wfANbKLyDezjRCKtQaRJ-84" value="" style="rounded=0;whiteSpace=wrap;html=1;" parent="wfANbKLyDezjRCKtQaRJ-83" vertex="1">
          <mxGeometry width="40" height="40" as="geometry" />
        </mxCell>
        <mxCell id="wfANbKLyDezjRCKtQaRJ-85" value="" style="triangle;whiteSpace=wrap;html=1;direction=north;" parent="wfANbKLyDezjRCKtQaRJ-83" vertex="1">
          <mxGeometry x="12.5" y="30" width="15" height="10" as="geometry" />
        </mxCell>
        <mxCell id="wfANbKLyDezjRCKtQaRJ-86" value="" style="group" parent="1" vertex="1" connectable="0">
          <mxGeometry x="440" y="200" width="40" height="40" as="geometry" />
        </mxCell>
        <mxCell id="wfANbKLyDezjRCKtQaRJ-87" value="" style="rounded=0;whiteSpace=wrap;html=1;" parent="wfANbKLyDezjRCKtQaRJ-86" vertex="1">
          <mxGeometry width="40" height="40" as="geometry" />
        </mxCell>
        <mxCell id="wfANbKLyDezjRCKtQaRJ-88" value="" style="triangle;whiteSpace=wrap;html=1;direction=north;" parent="wfANbKLyDezjRCKtQaRJ-86" vertex="1">
          <mxGeometry x="12.5" y="30" width="15" height="10" as="geometry" />
        </mxCell>
        <mxCell id="wfANbKLyDezjRCKtQaRJ-89" value="" style="group" parent="1" vertex="1" connectable="0">
          <mxGeometry x="440" y="240" width="40" height="40" as="geometry" />
        </mxCell>
        <mxCell id="wfANbKLyDezjRCKtQaRJ-90" value="" style="rounded=0;whiteSpace=wrap;html=1;" parent="wfANbKLyDezjRCKtQaRJ-89" vertex="1">
          <mxGeometry width="40" height="40" as="geometry" />
        </mxCell>
        <mxCell id="wfANbKLyDezjRCKtQaRJ-91" value="" style="triangle;whiteSpace=wrap;html=1;direction=north;" parent="wfANbKLyDezjRCKtQaRJ-89" vertex="1">
          <mxGeometry x="12.5" y="30" width="15" height="10" as="geometry" />
        </mxCell>
        <mxCell id="wfANbKLyDezjRCKtQaRJ-92" value="" style="group" parent="1" vertex="1" connectable="0">
          <mxGeometry x="440" y="280" width="40" height="40" as="geometry" />
        </mxCell>
        <mxCell id="wfANbKLyDezjRCKtQaRJ-93" value="" style="rounded=0;whiteSpace=wrap;html=1;" parent="wfANbKLyDezjRCKtQaRJ-92" vertex="1">
          <mxGeometry width="40" height="40" as="geometry" />
        </mxCell>
        <mxCell id="wfANbKLyDezjRCKtQaRJ-94" value="" style="triangle;whiteSpace=wrap;html=1;direction=north;" parent="wfANbKLyDezjRCKtQaRJ-92" vertex="1">
          <mxGeometry x="12.5" y="30" width="15" height="10" as="geometry" />
        </mxCell>
        <mxCell id="wfANbKLyDezjRCKtQaRJ-95" value="" style="group" parent="1" vertex="1" connectable="0">
          <mxGeometry x="440" y="320" width="40" height="40" as="geometry" />
        </mxCell>
        <mxCell id="wfANbKLyDezjRCKtQaRJ-96" value="" style="rounded=0;whiteSpace=wrap;html=1;" parent="wfANbKLyDezjRCKtQaRJ-95" vertex="1">
          <mxGeometry width="40" height="40" as="geometry" />
        </mxCell>
        <mxCell id="wfANbKLyDezjRCKtQaRJ-97" value="" style="triangle;whiteSpace=wrap;html=1;direction=north;" parent="wfANbKLyDezjRCKtQaRJ-95" vertex="1">
          <mxGeometry x="12.5" y="30" width="15" height="10" as="geometry" />
        </mxCell>
        <mxCell id="wfANbKLyDezjRCKtQaRJ-98" value="" style="group" parent="1" vertex="1" connectable="0">
          <mxGeometry x="520" y="160" width="40" height="40" as="geometry" />
        </mxCell>
        <mxCell id="wfANbKLyDezjRCKtQaRJ-99" value="" style="rounded=0;whiteSpace=wrap;html=1;" parent="wfANbKLyDezjRCKtQaRJ-98" vertex="1">
          <mxGeometry width="40" height="40" as="geometry" />
        </mxCell>
        <mxCell id="wfANbKLyDezjRCKtQaRJ-100" value="" style="triangle;whiteSpace=wrap;html=1;direction=north;" parent="wfANbKLyDezjRCKtQaRJ-98" vertex="1">
          <mxGeometry x="12.5" y="30" width="15" height="10" as="geometry" />
        </mxCell>
        <mxCell id="wfANbKLyDezjRCKtQaRJ-101" value="" style="group" parent="1" vertex="1" connectable="0">
          <mxGeometry x="520" y="200" width="40" height="40" as="geometry" />
        </mxCell>
        <mxCell id="wfANbKLyDezjRCKtQaRJ-102" value="" style="rounded=0;whiteSpace=wrap;html=1;" parent="wfANbKLyDezjRCKtQaRJ-101" vertex="1">
          <mxGeometry width="40" height="40" as="geometry" />
        </mxCell>
        <mxCell id="wfANbKLyDezjRCKtQaRJ-103" value="" style="triangle;whiteSpace=wrap;html=1;direction=north;" parent="wfANbKLyDezjRCKtQaRJ-101" vertex="1">
          <mxGeometry x="12.5" y="30" width="15" height="10" as="geometry" />
        </mxCell>
        <mxCell id="wfANbKLyDezjRCKtQaRJ-104" value="" style="group" parent="1" vertex="1" connectable="0">
          <mxGeometry x="520" y="240" width="40" height="40" as="geometry" />
        </mxCell>
        <mxCell id="wfANbKLyDezjRCKtQaRJ-105" value="" style="rounded=0;whiteSpace=wrap;html=1;" parent="wfANbKLyDezjRCKtQaRJ-104" vertex="1">
          <mxGeometry width="40" height="40" as="geometry" />
        </mxCell>
        <mxCell id="wfANbKLyDezjRCKtQaRJ-106" value="" style="triangle;whiteSpace=wrap;html=1;direction=north;" parent="wfANbKLyDezjRCKtQaRJ-104" vertex="1">
          <mxGeometry x="12.5" y="30" width="15" height="10" as="geometry" />
        </mxCell>
        <mxCell id="wfANbKLyDezjRCKtQaRJ-107" value="" style="group" parent="1" vertex="1" connectable="0">
          <mxGeometry x="520" y="280" width="40" height="40" as="geometry" />
        </mxCell>
        <mxCell id="wfANbKLyDezjRCKtQaRJ-108" value="" style="rounded=0;whiteSpace=wrap;html=1;" parent="wfANbKLyDezjRCKtQaRJ-107" vertex="1">
          <mxGeometry width="40" height="40" as="geometry" />
        </mxCell>
        <mxCell id="wfANbKLyDezjRCKtQaRJ-109" value="" style="triangle;whiteSpace=wrap;html=1;direction=north;" parent="wfANbKLyDezjRCKtQaRJ-107" vertex="1">
          <mxGeometry x="12.5" y="30" width="15" height="10" as="geometry" />
        </mxCell>
        <mxCell id="wfANbKLyDezjRCKtQaRJ-110" value="" style="group" parent="1" vertex="1" connectable="0">
          <mxGeometry x="520" y="320" width="40" height="40" as="geometry" />
        </mxCell>
        <mxCell id="wfANbKLyDezjRCKtQaRJ-111" value="" style="rounded=0;whiteSpace=wrap;html=1;" parent="wfANbKLyDezjRCKtQaRJ-110" vertex="1">
          <mxGeometry width="40" height="40" as="geometry" />
        </mxCell>
        <mxCell id="wfANbKLyDezjRCKtQaRJ-112" value="" style="triangle;whiteSpace=wrap;html=1;direction=north;" parent="wfANbKLyDezjRCKtQaRJ-110" vertex="1">
          <mxGeometry x="12.5" y="30" width="15" height="10" as="geometry" />
        </mxCell>
        <mxCell id="wfANbKLyDezjRCKtQaRJ-113" value="" style="endArrow=classic;html=1;rounded=0;entryX=0;entryY=0.5;entryDx=0;entryDy=0;" parent="1" target="wfANbKLyDezjRCKtQaRJ-1" edge="1">
          <mxGeometry width="50" height="50" relative="1" as="geometry">
            <mxPoint x="90" y="180" as="sourcePoint" />
            <mxPoint x="140" y="140" as="targetPoint" />
          </mxGeometry>
        </mxCell>
        <mxCell id="wfANbKLyDezjRCKtQaRJ-114" value="" style="endArrow=classic;html=1;rounded=0;entryX=0;entryY=0.5;entryDx=0;entryDy=0;" parent="1" edge="1">
          <mxGeometry width="50" height="50" relative="1" as="geometry">
            <mxPoint x="90" y="219.78" as="sourcePoint" />
            <mxPoint x="200" y="219.78" as="targetPoint" />
          </mxGeometry>
        </mxCell>
        <mxCell id="wfANbKLyDezjRCKtQaRJ-115" value="" style="endArrow=classic;html=1;rounded=0;entryX=0;entryY=0.5;entryDx=0;entryDy=0;" parent="1" edge="1">
          <mxGeometry width="50" height="50" relative="1" as="geometry">
            <mxPoint x="90" y="259.78" as="sourcePoint" />
            <mxPoint x="200" y="259.78" as="targetPoint" />
          </mxGeometry>
        </mxCell>
        <mxCell id="wfANbKLyDezjRCKtQaRJ-116" value="" style="endArrow=classic;html=1;rounded=0;entryX=0;entryY=0.5;entryDx=0;entryDy=0;" parent="1" edge="1">
          <mxGeometry width="50" height="50" relative="1" as="geometry">
            <mxPoint x="90" y="299.78" as="sourcePoint" />
            <mxPoint x="200" y="299.78" as="targetPoint" />
          </mxGeometry>
        </mxCell>
        <mxCell id="wfANbKLyDezjRCKtQaRJ-118" value="" style="endArrow=classic;html=1;rounded=0;entryX=0;entryY=0.5;entryDx=0;entryDy=0;" parent="1" edge="1">
          <mxGeometry width="50" height="50" relative="1" as="geometry">
            <mxPoint x="90" y="339.78" as="sourcePoint" />
            <mxPoint x="200" y="339.78" as="targetPoint" />
          </mxGeometry>
        </mxCell>
        <mxCell id="wfANbKLyDezjRCKtQaRJ-119" value="S1" style="text;html=1;align=center;verticalAlign=middle;whiteSpace=wrap;rounded=0;" parent="1" vertex="1">
          <mxGeometry x="70" y="140" width="60" height="30" as="geometry" />
        </mxCell>
        <mxCell id="wfANbKLyDezjRCKtQaRJ-120" value="S2" style="text;html=1;align=center;verticalAlign=middle;whiteSpace=wrap;rounded=0;" parent="1" vertex="1">
          <mxGeometry x="70" y="190" width="60" height="30" as="geometry" />
        </mxCell>
        <mxCell id="wfANbKLyDezjRCKtQaRJ-121" value="S3" style="text;html=1;align=center;verticalAlign=middle;whiteSpace=wrap;rounded=0;" parent="1" vertex="1">
          <mxGeometry x="70" y="230" width="60" height="30" as="geometry" />
        </mxCell>
        <mxCell id="wfANbKLyDezjRCKtQaRJ-122" value="S4" style="text;html=1;align=center;verticalAlign=middle;whiteSpace=wrap;rounded=0;" parent="1" vertex="1">
          <mxGeometry x="70" y="270" width="60" height="30" as="geometry" />
        </mxCell>
        <mxCell id="wfANbKLyDezjRCKtQaRJ-123" value="S5" style="text;html=1;align=center;verticalAlign=middle;whiteSpace=wrap;rounded=0;" parent="1" vertex="1">
          <mxGeometry x="70" y="310" width="60" height="30" as="geometry" />
        </mxCell>
        <mxCell id="wfANbKLyDezjRCKtQaRJ-126" value="" style="endArrow=classic;html=1;rounded=0;" parent="1" edge="1">
          <mxGeometry width="50" height="50" relative="1" as="geometry">
            <mxPoint x="1080" y="175" as="sourcePoint" />
            <mxPoint x="1150" y="175" as="targetPoint" />
          </mxGeometry>
        </mxCell>
        <mxCell id="wfANbKLyDezjRCKtQaRJ-127" value="" style="endArrow=classic;html=1;rounded=0;" parent="1" edge="1">
          <mxGeometry width="50" height="50" relative="1" as="geometry">
            <mxPoint x="1080" y="204.56" as="sourcePoint" />
            <mxPoint x="1150" y="204.56" as="targetPoint" />
          </mxGeometry>
        </mxCell>
        <mxCell id="wfANbKLyDezjRCKtQaRJ-128" value="" style="endArrow=classic;html=1;rounded=0;" parent="1" edge="1">
          <mxGeometry width="50" height="50" relative="1" as="geometry">
            <mxPoint x="1080" y="235" as="sourcePoint" />
            <mxPoint x="1150" y="235" as="targetPoint" />
          </mxGeometry>
        </mxCell>
        <mxCell id="wfANbKLyDezjRCKtQaRJ-129" value="" style="endArrow=classic;html=1;rounded=0;" parent="1" edge="1">
          <mxGeometry width="50" height="50" relative="1" as="geometry">
            <mxPoint x="1080" y="264.56" as="sourcePoint" />
            <mxPoint x="1150" y="264.56" as="targetPoint" />
          </mxGeometry>
        </mxCell>
        <mxCell id="wfANbKLyDezjRCKtQaRJ-130" value="" style="endArrow=classic;html=1;rounded=0;" parent="1" edge="1">
          <mxGeometry width="50" height="50" relative="1" as="geometry">
            <mxPoint x="1080" y="324.56" as="sourcePoint" />
            <mxPoint x="1150" y="324.56" as="targetPoint" />
          </mxGeometry>
        </mxCell>
        <mxCell id="wfANbKLyDezjRCKtQaRJ-131" value="S1" style="text;html=1;align=center;verticalAlign=middle;whiteSpace=wrap;rounded=0;" parent="1" vertex="1">
          <mxGeometry x="1060" y="140" width="60" height="30" as="geometry" />
        </mxCell>
        <mxCell id="wfANbKLyDezjRCKtQaRJ-132" value="S2" style="text;html=1;align=center;verticalAlign=middle;whiteSpace=wrap;rounded=0;" parent="1" vertex="1">
          <mxGeometry x="1060" y="175" width="60" height="30" as="geometry" />
        </mxCell>
        <mxCell id="wfANbKLyDezjRCKtQaRJ-133" value="S3" style="text;html=1;align=center;verticalAlign=middle;whiteSpace=wrap;rounded=0;" parent="1" vertex="1">
          <mxGeometry x="1060" y="205" width="60" height="30" as="geometry" />
        </mxCell>
        <mxCell id="wfANbKLyDezjRCKtQaRJ-134" value="S4" style="text;html=1;align=center;verticalAlign=middle;whiteSpace=wrap;rounded=0;" parent="1" vertex="1">
          <mxGeometry x="1060" y="235" width="60" height="30" as="geometry" />
        </mxCell>
        <mxCell id="wfANbKLyDezjRCKtQaRJ-135" value="S25" style="text;html=1;align=center;verticalAlign=middle;whiteSpace=wrap;rounded=0;" parent="1" vertex="1">
          <mxGeometry x="1060" y="290" width="60" height="30" as="geometry" />
        </mxCell>
        <mxCell id="wfANbKLyDezjRCKtQaRJ-137" value="..." style="text;html=1;align=center;verticalAlign=middle;whiteSpace=wrap;rounded=0;direction=south;rotation=90;" parent="1" vertex="1">
          <mxGeometry x="1110" y="277.5" width="30" height="25" as="geometry" />
        </mxCell>
        <mxCell id="wfANbKLyDezjRCKtQaRJ-140" value="" style="endArrow=classic;html=1;rounded=0;exitX=1;exitY=0.5;exitDx=0;exitDy=0;entryX=0;entryY=0.5;entryDx=0;entryDy=0;" parent="1" source="wfANbKLyDezjRCKtQaRJ-1" target="wfANbKLyDezjRCKtQaRJ-54" edge="1">
          <mxGeometry width="50" height="50" relative="1" as="geometry">
            <mxPoint x="250" y="190" as="sourcePoint" />
            <mxPoint x="300" y="140" as="targetPoint" />
          </mxGeometry>
        </mxCell>
        <mxCell id="wfANbKLyDezjRCKtQaRJ-141" value="" style="endArrow=classic;html=1;rounded=0;exitX=1;exitY=0.5;exitDx=0;exitDy=0;entryX=0;entryY=0.5;entryDx=0;entryDy=0;" parent="1" edge="1">
          <mxGeometry width="50" height="50" relative="1" as="geometry">
            <mxPoint x="240" y="220" as="sourcePoint" />
            <mxPoint x="280" y="220" as="targetPoint" />
          </mxGeometry>
        </mxCell>
        <mxCell id="wfANbKLyDezjRCKtQaRJ-142" value="" style="endArrow=classic;html=1;rounded=0;exitX=1;exitY=0.5;exitDx=0;exitDy=0;entryX=0;entryY=0.5;entryDx=0;entryDy=0;" parent="1" edge="1">
          <mxGeometry width="50" height="50" relative="1" as="geometry">
            <mxPoint x="240" y="260" as="sourcePoint" />
            <mxPoint x="280" y="260" as="targetPoint" />
          </mxGeometry>
        </mxCell>
        <mxCell id="wfANbKLyDezjRCKtQaRJ-143" value="" style="endArrow=classic;html=1;rounded=0;exitX=1;exitY=0.5;exitDx=0;exitDy=0;entryX=0;entryY=0.5;entryDx=0;entryDy=0;" parent="1" edge="1">
          <mxGeometry width="50" height="50" relative="1" as="geometry">
            <mxPoint x="240" y="300" as="sourcePoint" />
            <mxPoint x="280" y="300" as="targetPoint" />
          </mxGeometry>
        </mxCell>
        <mxCell id="wfANbKLyDezjRCKtQaRJ-144" value="" style="endArrow=classic;html=1;rounded=0;exitX=1;exitY=0.5;exitDx=0;exitDy=0;entryX=0;entryY=0.5;entryDx=0;entryDy=0;" parent="1" edge="1">
          <mxGeometry width="50" height="50" relative="1" as="geometry">
            <mxPoint x="240" y="340" as="sourcePoint" />
            <mxPoint x="280" y="340" as="targetPoint" />
          </mxGeometry>
        </mxCell>
        <mxCell id="wfANbKLyDezjRCKtQaRJ-145" value="" style="endArrow=classic;html=1;rounded=0;exitX=1;exitY=0.5;exitDx=0;exitDy=0;entryX=0;entryY=0.5;entryDx=0;entryDy=0;" parent="1" edge="1">
          <mxGeometry width="50" height="50" relative="1" as="geometry">
            <mxPoint x="320" y="179.74" as="sourcePoint" />
            <mxPoint x="360" y="179.74" as="targetPoint" />
          </mxGeometry>
        </mxCell>
        <mxCell id="wfANbKLyDezjRCKtQaRJ-146" value="" style="endArrow=classic;html=1;rounded=0;exitX=1;exitY=0.5;exitDx=0;exitDy=0;entryX=0;entryY=0.5;entryDx=0;entryDy=0;" parent="1" edge="1">
          <mxGeometry width="50" height="50" relative="1" as="geometry">
            <mxPoint x="320" y="220" as="sourcePoint" />
            <mxPoint x="360" y="220" as="targetPoint" />
          </mxGeometry>
        </mxCell>
        <mxCell id="wfANbKLyDezjRCKtQaRJ-147" value="" style="endArrow=classic;html=1;rounded=0;exitX=1;exitY=0.5;exitDx=0;exitDy=0;entryX=0;entryY=0.5;entryDx=0;entryDy=0;" parent="1" edge="1">
          <mxGeometry width="50" height="50" relative="1" as="geometry">
            <mxPoint x="320" y="259.7" as="sourcePoint" />
            <mxPoint x="360" y="259.7" as="targetPoint" />
          </mxGeometry>
        </mxCell>
        <mxCell id="wfANbKLyDezjRCKtQaRJ-148" value="" style="endArrow=classic;html=1;rounded=0;exitX=1;exitY=0.5;exitDx=0;exitDy=0;entryX=0;entryY=0.5;entryDx=0;entryDy=0;" parent="1" edge="1">
          <mxGeometry width="50" height="50" relative="1" as="geometry">
            <mxPoint x="320" y="299.84999999999997" as="sourcePoint" />
            <mxPoint x="360" y="299.84999999999997" as="targetPoint" />
          </mxGeometry>
        </mxCell>
        <mxCell id="wfANbKLyDezjRCKtQaRJ-149" value="" style="endArrow=classic;html=1;rounded=0;exitX=1;exitY=0.5;exitDx=0;exitDy=0;entryX=0;entryY=0.5;entryDx=0;entryDy=0;" parent="1" edge="1">
          <mxGeometry width="50" height="50" relative="1" as="geometry">
            <mxPoint x="320" y="339.99999999999994" as="sourcePoint" />
            <mxPoint x="360" y="339.99999999999994" as="targetPoint" />
          </mxGeometry>
        </mxCell>
        <mxCell id="wfANbKLyDezjRCKtQaRJ-150" value="" style="endArrow=classic;html=1;rounded=0;exitX=1;exitY=0.5;exitDx=0;exitDy=0;entryX=0;entryY=0.5;entryDx=0;entryDy=0;" parent="1" edge="1">
          <mxGeometry width="50" height="50" relative="1" as="geometry">
            <mxPoint x="400" y="339.99999999999994" as="sourcePoint" />
            <mxPoint x="440" y="339.99999999999994" as="targetPoint" />
          </mxGeometry>
        </mxCell>
        <mxCell id="wfANbKLyDezjRCKtQaRJ-151" value="" style="endArrow=classic;html=1;rounded=0;exitX=1;exitY=0.5;exitDx=0;exitDy=0;entryX=0;entryY=0.5;entryDx=0;entryDy=0;" parent="1" edge="1">
          <mxGeometry width="50" height="50" relative="1" as="geometry">
            <mxPoint x="400" y="299.99999999999994" as="sourcePoint" />
            <mxPoint x="440" y="299.99999999999994" as="targetPoint" />
          </mxGeometry>
        </mxCell>
        <mxCell id="wfANbKLyDezjRCKtQaRJ-152" value="" style="endArrow=classic;html=1;rounded=0;exitX=1;exitY=0.5;exitDx=0;exitDy=0;entryX=0;entryY=0.5;entryDx=0;entryDy=0;" parent="1" edge="1">
          <mxGeometry width="50" height="50" relative="1" as="geometry">
            <mxPoint x="400" y="259.99999999999994" as="sourcePoint" />
            <mxPoint x="440" y="259.99999999999994" as="targetPoint" />
          </mxGeometry>
        </mxCell>
        <mxCell id="wfANbKLyDezjRCKtQaRJ-153" value="" style="endArrow=classic;html=1;rounded=0;exitX=1;exitY=0.5;exitDx=0;exitDy=0;entryX=0;entryY=0.5;entryDx=0;entryDy=0;" parent="1" edge="1">
          <mxGeometry width="50" height="50" relative="1" as="geometry">
            <mxPoint x="400" y="219.99999999999994" as="sourcePoint" />
            <mxPoint x="440" y="219.99999999999994" as="targetPoint" />
          </mxGeometry>
        </mxCell>
        <mxCell id="wfANbKLyDezjRCKtQaRJ-154" value="" style="endArrow=classic;html=1;rounded=0;exitX=1;exitY=0.5;exitDx=0;exitDy=0;entryX=0;entryY=0.5;entryDx=0;entryDy=0;" parent="1" edge="1">
          <mxGeometry width="50" height="50" relative="1" as="geometry">
            <mxPoint x="400" y="179.84999999999994" as="sourcePoint" />
            <mxPoint x="440" y="179.84999999999994" as="targetPoint" />
          </mxGeometry>
        </mxCell>
        <mxCell id="wfANbKLyDezjRCKtQaRJ-155" value="" style="endArrow=classic;html=1;rounded=0;exitX=1;exitY=0.5;exitDx=0;exitDy=0;entryX=0;entryY=0.5;entryDx=0;entryDy=0;" parent="1" edge="1">
          <mxGeometry width="50" height="50" relative="1" as="geometry">
            <mxPoint x="480" y="179.81999999999994" as="sourcePoint" />
            <mxPoint x="520" y="179.81999999999994" as="targetPoint" />
          </mxGeometry>
        </mxCell>
        <mxCell id="wfANbKLyDezjRCKtQaRJ-156" value="" style="endArrow=classic;html=1;rounded=0;exitX=1;exitY=0.5;exitDx=0;exitDy=0;entryX=0;entryY=0.5;entryDx=0;entryDy=0;" parent="1" edge="1">
          <mxGeometry width="50" height="50" relative="1" as="geometry">
            <mxPoint x="480" y="219.81999999999994" as="sourcePoint" />
            <mxPoint x="520" y="219.81999999999994" as="targetPoint" />
          </mxGeometry>
        </mxCell>
        <mxCell id="wfANbKLyDezjRCKtQaRJ-157" value="" style="endArrow=classic;html=1;rounded=0;exitX=1;exitY=0.5;exitDx=0;exitDy=0;entryX=0;entryY=0.5;entryDx=0;entryDy=0;" parent="1" edge="1">
          <mxGeometry width="50" height="50" relative="1" as="geometry">
            <mxPoint x="480" y="259.99999999999994" as="sourcePoint" />
            <mxPoint x="520" y="259.99999999999994" as="targetPoint" />
          </mxGeometry>
        </mxCell>
        <mxCell id="wfANbKLyDezjRCKtQaRJ-158" value="" style="endArrow=classic;html=1;rounded=0;exitX=1;exitY=0.5;exitDx=0;exitDy=0;entryX=0;entryY=0.5;entryDx=0;entryDy=0;" parent="1" edge="1">
          <mxGeometry width="50" height="50" relative="1" as="geometry">
            <mxPoint x="480" y="297.49999999999994" as="sourcePoint" />
            <mxPoint x="520" y="297.49999999999994" as="targetPoint" />
          </mxGeometry>
        </mxCell>
        <mxCell id="wfANbKLyDezjRCKtQaRJ-159" value="" style="endArrow=classic;html=1;rounded=0;exitX=1;exitY=0.5;exitDx=0;exitDy=0;entryX=0;entryY=0.5;entryDx=0;entryDy=0;" parent="1" edge="1">
          <mxGeometry width="50" height="50" relative="1" as="geometry">
            <mxPoint x="480" y="339.99999999999994" as="sourcePoint" />
            <mxPoint x="520" y="339.99999999999994" as="targetPoint" />
          </mxGeometry>
        </mxCell>
        <mxCell id="wfANbKLyDezjRCKtQaRJ-227" value="" style="endArrow=classic;html=1;rounded=0;" parent="1" edge="1">
          <mxGeometry width="50" height="50" relative="1" as="geometry">
            <mxPoint x="1870" y="164.6" as="sourcePoint" />
            <mxPoint x="1950" y="164.6" as="targetPoint" />
          </mxGeometry>
        </mxCell>
        <mxCell id="wfANbKLyDezjRCKtQaRJ-228" value="S1_o" style="text;html=1;align=center;verticalAlign=middle;whiteSpace=wrap;rounded=0;" parent="1" vertex="1">
          <mxGeometry x="1860" y="130" width="60" height="30" as="geometry" />
        </mxCell>
        <mxCell id="wfANbKLyDezjRCKtQaRJ-229" value="" style="endArrow=classic;html=1;rounded=0;" parent="1" edge="1">
          <mxGeometry width="50" height="50" relative="1" as="geometry">
            <mxPoint x="1870" y="199.31" as="sourcePoint" />
            <mxPoint x="1950" y="199.31" as="targetPoint" />
          </mxGeometry>
        </mxCell>
        <mxCell id="wfANbKLyDezjRCKtQaRJ-230" value="S2_o" style="text;html=1;align=center;verticalAlign=middle;whiteSpace=wrap;rounded=0;" parent="1" vertex="1">
          <mxGeometry x="1860" y="170" width="60" height="30" as="geometry" />
        </mxCell>
        <mxCell id="wfANbKLyDezjRCKtQaRJ-231" value="" style="endArrow=classic;html=1;rounded=0;" parent="1" edge="1">
          <mxGeometry width="50" height="50" relative="1" as="geometry">
            <mxPoint x="1870" y="240" as="sourcePoint" />
            <mxPoint x="1950" y="240" as="targetPoint" />
          </mxGeometry>
        </mxCell>
        <mxCell id="wfANbKLyDezjRCKtQaRJ-232" value="S3_o" style="text;html=1;align=center;verticalAlign=middle;whiteSpace=wrap;rounded=0;" parent="1" vertex="1">
          <mxGeometry x="1860" y="210" width="60" height="30" as="geometry" />
        </mxCell>
        <mxCell id="wfANbKLyDezjRCKtQaRJ-236" value="" style="endArrow=classic;html=1;rounded=0;" parent="1" edge="1">
          <mxGeometry width="50" height="50" relative="1" as="geometry">
            <mxPoint x="1870" y="277.5" as="sourcePoint" />
            <mxPoint x="1950" y="277.5" as="targetPoint" />
          </mxGeometry>
        </mxCell>
        <mxCell id="wfANbKLyDezjRCKtQaRJ-237" value="S4_o" style="text;html=1;align=center;verticalAlign=middle;whiteSpace=wrap;rounded=0;" parent="1" vertex="1">
          <mxGeometry x="1860" y="245" width="60" height="30" as="geometry" />
        </mxCell>
        <mxCell id="wfANbKLyDezjRCKtQaRJ-238" value="" style="endArrow=classic;html=1;rounded=0;" parent="1" edge="1">
          <mxGeometry width="50" height="50" relative="1" as="geometry">
            <mxPoint x="1870" y="315" as="sourcePoint" />
            <mxPoint x="1950" y="315" as="targetPoint" />
          </mxGeometry>
        </mxCell>
        <mxCell id="wfANbKLyDezjRCKtQaRJ-239" value="S5_o" style="text;html=1;align=center;verticalAlign=middle;whiteSpace=wrap;rounded=0;" parent="1" vertex="1">
          <mxGeometry x="1860" y="280" width="60" height="30" as="geometry" />
        </mxCell>
        <mxCell id="wfANbKLyDezjRCKtQaRJ-240" value="Controller" style="rounded=0;whiteSpace=wrap;html=1;" parent="1" vertex="1">
          <mxGeometry x="1110" y="-10" width="460" height="60" as="geometry" />
        </mxCell>
        <mxCell id="wfANbKLyDezjRCKtQaRJ-241" value="" style="endArrow=classic;html=1;rounded=0;entryX=0.358;entryY=-0.015;entryDx=0;entryDy=0;entryPerimeter=0;" parent="1" target="wfANbKLyDezjRCKtQaRJ-240" edge="1">
          <mxGeometry width="50" height="50" relative="1" as="geometry">
            <mxPoint x="1275" y="-100" as="sourcePoint" />
            <mxPoint x="1325" y="-150" as="targetPoint" />
          </mxGeometry>
        </mxCell>
        <mxCell id="wfANbKLyDezjRCKtQaRJ-242" value="done_i" style="text;html=1;align=center;verticalAlign=middle;whiteSpace=wrap;rounded=0;" parent="1" vertex="1">
          <mxGeometry x="1245" y="-130" width="60" height="30" as="geometry" />
        </mxCell>
        <mxCell id="wfANbKLyDezjRCKtQaRJ-245" value="" style="endArrow=classic;html=1;rounded=0;entryX=0.358;entryY=-0.015;entryDx=0;entryDy=0;entryPerimeter=0;" parent="1" target="wfANbKLyDezjRCKtQaRJ-240" edge="1">
          <mxGeometry width="50" height="50" relative="1" as="geometry">
            <mxPoint x="1275" y="-80" as="sourcePoint" />
            <mxPoint x="1275" y="-11" as="targetPoint" />
          </mxGeometry>
        </mxCell>
        <mxCell id="wfANbKLyDezjRCKtQaRJ-250" value="" style="shape=trapezoid;perimeter=trapezoidPerimeter;whiteSpace=wrap;html=1;fixedSize=1;direction=south;" parent="1" vertex="1">
          <mxGeometry x="1800" y="110" width="70" height="250" as="geometry" />
        </mxCell>
        <mxCell id="wfANbKLyDezjRCKtQaRJ-252" value="" style="endArrow=classic;html=1;rounded=0;exitX=1;exitY=0.5;exitDx=0;exitDy=0;entryX=0;entryY=0.5;entryDx=0;entryDy=0;" parent="1" source="wfANbKLyDezjRCKtQaRJ-240" target="wfANbKLyDezjRCKtQaRJ-250" edge="1">
          <mxGeometry width="50" height="50" relative="1" as="geometry">
            <mxPoint x="1640" y="30" as="sourcePoint" />
            <mxPoint x="1690" y="-20" as="targetPoint" />
            <Array as="points">
              <mxPoint x="1835" y="20" />
            </Array>
          </mxGeometry>
        </mxCell>
        <mxCell id="wfANbKLyDezjRCKtQaRJ-253" value="o_select" style="text;html=1;align=center;verticalAlign=middle;whiteSpace=wrap;rounded=0;" parent="1" vertex="1">
          <mxGeometry x="1580" y="-10" width="60" height="30" as="geometry" />
        </mxCell>
        <mxCell id="wfANbKLyDezjRCKtQaRJ-255" value="0" style="text;html=1;align=center;verticalAlign=middle;whiteSpace=wrap;rounded=0;" parent="1" vertex="1">
          <mxGeometry x="1805" y="140" width="30" height="20" as="geometry" />
        </mxCell>
        <mxCell id="wfANbKLyDezjRCKtQaRJ-257" value="1" style="text;html=1;align=center;verticalAlign=middle;whiteSpace=wrap;rounded=0;" parent="1" vertex="1">
          <mxGeometry x="1810" y="180" width="20" height="20" as="geometry" />
        </mxCell>
        <mxCell id="wfANbKLyDezjRCKtQaRJ-258" value="2" style="text;html=1;align=center;verticalAlign=middle;whiteSpace=wrap;rounded=0;" parent="1" vertex="1">
          <mxGeometry x="1810" y="220" width="20" height="20" as="geometry" />
        </mxCell>
        <mxCell id="wfANbKLyDezjRCKtQaRJ-259" value="3" style="text;html=1;align=center;verticalAlign=middle;whiteSpace=wrap;rounded=0;" parent="1" vertex="1">
          <mxGeometry x="1810" y="257.5" width="20" height="20" as="geometry" />
        </mxCell>
        <mxCell id="wfANbKLyDezjRCKtQaRJ-260" value="4" style="text;html=1;align=center;verticalAlign=middle;whiteSpace=wrap;rounded=0;" parent="1" vertex="1">
          <mxGeometry x="1810" y="302.5" width="20" height="17.5" as="geometry" />
        </mxCell>
        <mxCell id="wfANbKLyDezjRCKtQaRJ-262" value="" style="endArrow=classic;html=1;rounded=0;entryX=0.159;entryY=1.019;entryDx=0;entryDy=0;entryPerimeter=0;" parent="1" target="wfANbKLyDezjRCKtQaRJ-250" edge="1">
          <mxGeometry width="50" height="50" relative="1" as="geometry">
            <mxPoint x="1730" y="150" as="sourcePoint" />
            <mxPoint x="1780" y="135" as="targetPoint" />
          </mxGeometry>
        </mxCell>
        <mxCell id="wfANbKLyDezjRCKtQaRJ-263" value="st2 S1, 6, 11, 16, 21" style="text;html=1;align=center;verticalAlign=middle;whiteSpace=wrap;rounded=0;" parent="1" vertex="1">
          <mxGeometry x="1720" y="110" width="60" height="30" as="geometry" />
        </mxCell>
        <mxCell id="wfANbKLyDezjRCKtQaRJ-266" value="" style="endArrow=classic;html=1;rounded=0;entryX=0.318;entryY=1.003;entryDx=0;entryDy=0;entryPerimeter=0;" parent="1" target="wfANbKLyDezjRCKtQaRJ-250" edge="1">
          <mxGeometry width="50" height="50" relative="1" as="geometry">
            <mxPoint x="1730" y="190" as="sourcePoint" />
            <mxPoint x="1775" y="150.4" as="targetPoint" />
          </mxGeometry>
        </mxCell>
        <mxCell id="wfANbKLyDezjRCKtQaRJ-267" value="st3: 2, 7, 12, 17, 22" style="text;html=1;align=center;verticalAlign=middle;whiteSpace=wrap;rounded=0;" parent="1" vertex="1">
          <mxGeometry x="1700" y="165" width="80" height="30" as="geometry" />
        </mxCell>
        <mxCell id="wfANbKLyDezjRCKtQaRJ-268" value="" style="endArrow=classic;html=1;rounded=0;entryX=0.318;entryY=1.003;entryDx=0;entryDy=0;entryPerimeter=0;" parent="1" edge="1">
          <mxGeometry width="50" height="50" relative="1" as="geometry">
            <mxPoint x="1730" y="229.82999999999998" as="sourcePoint" />
            <mxPoint x="1800" y="229.82999999999998" as="targetPoint" />
          </mxGeometry>
        </mxCell>
        <mxCell id="wfANbKLyDezjRCKtQaRJ-269" value="st4 3, 8, 13, 18, 23" style="text;html=1;align=center;verticalAlign=middle;whiteSpace=wrap;rounded=0;" parent="1" vertex="1">
          <mxGeometry x="1690" y="205" width="90" height="30" as="geometry" />
        </mxCell>
        <mxCell id="wfANbKLyDezjRCKtQaRJ-270" value="" style="endArrow=classic;html=1;rounded=0;entryX=0.318;entryY=1.003;entryDx=0;entryDy=0;entryPerimeter=0;" parent="1" edge="1">
          <mxGeometry width="50" height="50" relative="1" as="geometry">
            <mxPoint x="1730" y="269.83" as="sourcePoint" />
            <mxPoint x="1800" y="269.83" as="targetPoint" />
          </mxGeometry>
        </mxCell>
        <mxCell id="wfANbKLyDezjRCKtQaRJ-271" value="st5: 4, 9, 14, 19, 24" style="text;html=1;align=center;verticalAlign=middle;whiteSpace=wrap;rounded=0;" parent="1" vertex="1">
          <mxGeometry x="1690" y="245" width="90" height="30" as="geometry" />
        </mxCell>
        <mxCell id="wfANbKLyDezjRCKtQaRJ-272" value="" style="endArrow=classic;html=1;rounded=0;entryX=0.318;entryY=1.003;entryDx=0;entryDy=0;entryPerimeter=0;" parent="1" edge="1">
          <mxGeometry width="50" height="50" relative="1" as="geometry">
            <mxPoint x="1730" y="314.83" as="sourcePoint" />
            <mxPoint x="1800" y="314.83" as="targetPoint" />
          </mxGeometry>
        </mxCell>
        <mxCell id="wfANbKLyDezjRCKtQaRJ-273" value="st6: 5, 10, 15, 20, 25" style="text;html=1;align=center;verticalAlign=middle;whiteSpace=wrap;rounded=0;" parent="1" vertex="1">
          <mxGeometry x="1690" y="290" width="90" height="30" as="geometry" />
        </mxCell>
        <mxCell id="wfANbKLyDezjRCKtQaRJ-294" value="1" style="rounded=0;whiteSpace=wrap;html=1;" parent="1" vertex="1">
          <mxGeometry x="690" y="-140" width="40" height="40" as="geometry" />
        </mxCell>
        <mxCell id="wfANbKLyDezjRCKtQaRJ-295" value="2" style="rounded=0;whiteSpace=wrap;html=1;" parent="1" vertex="1">
          <mxGeometry x="730" y="-140" width="40" height="40" as="geometry" />
        </mxCell>
        <mxCell id="wfANbKLyDezjRCKtQaRJ-296" value="3" style="rounded=0;whiteSpace=wrap;html=1;" parent="1" vertex="1">
          <mxGeometry x="770" y="-140" width="40" height="40" as="geometry" />
        </mxCell>
        <mxCell id="wfANbKLyDezjRCKtQaRJ-297" value="4" style="rounded=0;whiteSpace=wrap;html=1;" parent="1" vertex="1">
          <mxGeometry x="810" y="-140" width="40" height="40" as="geometry" />
        </mxCell>
        <mxCell id="wfANbKLyDezjRCKtQaRJ-298" value="5" style="rounded=0;whiteSpace=wrap;html=1;" parent="1" vertex="1">
          <mxGeometry x="850" y="-140" width="40" height="40" as="geometry" />
        </mxCell>
        <mxCell id="wfANbKLyDezjRCKtQaRJ-299" value="10" style="rounded=0;whiteSpace=wrap;html=1;" parent="1" vertex="1">
          <mxGeometry x="850" y="-100" width="40" height="40" as="geometry" />
        </mxCell>
        <mxCell id="wfANbKLyDezjRCKtQaRJ-300" value="9" style="rounded=0;whiteSpace=wrap;html=1;" parent="1" vertex="1">
          <mxGeometry x="810" y="-100" width="40" height="40" as="geometry" />
        </mxCell>
        <mxCell id="wfANbKLyDezjRCKtQaRJ-301" value="8" style="rounded=0;whiteSpace=wrap;html=1;" parent="1" vertex="1">
          <mxGeometry x="770" y="-100" width="40" height="40" as="geometry" />
        </mxCell>
        <mxCell id="wfANbKLyDezjRCKtQaRJ-302" value="7" style="rounded=0;whiteSpace=wrap;html=1;" parent="1" vertex="1">
          <mxGeometry x="730" y="-100" width="40" height="40" as="geometry" />
        </mxCell>
        <mxCell id="wfANbKLyDezjRCKtQaRJ-303" value="6" style="rounded=0;whiteSpace=wrap;html=1;" parent="1" vertex="1">
          <mxGeometry x="690" y="-100" width="40" height="40" as="geometry" />
        </mxCell>
        <mxCell id="wfANbKLyDezjRCKtQaRJ-304" value="15" style="rounded=0;whiteSpace=wrap;html=1;" parent="1" vertex="1">
          <mxGeometry x="850" y="-60" width="40" height="40" as="geometry" />
        </mxCell>
        <mxCell id="wfANbKLyDezjRCKtQaRJ-305" value="14" style="rounded=0;whiteSpace=wrap;html=1;" parent="1" vertex="1">
          <mxGeometry x="810" y="-60" width="40" height="40" as="geometry" />
        </mxCell>
        <mxCell id="wfANbKLyDezjRCKtQaRJ-306" value="13" style="rounded=0;whiteSpace=wrap;html=1;" parent="1" vertex="1">
          <mxGeometry x="770" y="-60" width="40" height="40" as="geometry" />
        </mxCell>
        <mxCell id="wfANbKLyDezjRCKtQaRJ-307" value="12" style="rounded=0;whiteSpace=wrap;html=1;" parent="1" vertex="1">
          <mxGeometry x="730" y="-60" width="40" height="40" as="geometry" />
        </mxCell>
        <mxCell id="wfANbKLyDezjRCKtQaRJ-308" value="11" style="rounded=0;whiteSpace=wrap;html=1;" parent="1" vertex="1">
          <mxGeometry x="690" y="-60" width="40" height="40" as="geometry" />
        </mxCell>
        <mxCell id="wfANbKLyDezjRCKtQaRJ-309" value="20" style="rounded=0;whiteSpace=wrap;html=1;" parent="1" vertex="1">
          <mxGeometry x="850" y="-20" width="40" height="40" as="geometry" />
        </mxCell>
        <mxCell id="wfANbKLyDezjRCKtQaRJ-310" value="19" style="rounded=0;whiteSpace=wrap;html=1;" parent="1" vertex="1">
          <mxGeometry x="810" y="-20" width="40" height="40" as="geometry" />
        </mxCell>
        <mxCell id="wfANbKLyDezjRCKtQaRJ-311" value="18" style="rounded=0;whiteSpace=wrap;html=1;" parent="1" vertex="1">
          <mxGeometry x="770" y="-20" width="40" height="40" as="geometry" />
        </mxCell>
        <mxCell id="wfANbKLyDezjRCKtQaRJ-312" value="17" style="rounded=0;whiteSpace=wrap;html=1;" parent="1" vertex="1">
          <mxGeometry x="730" y="-20" width="40" height="40" as="geometry" />
        </mxCell>
        <mxCell id="wfANbKLyDezjRCKtQaRJ-313" value="16" style="rounded=0;whiteSpace=wrap;html=1;" parent="1" vertex="1">
          <mxGeometry x="690" y="-20" width="40" height="40" as="geometry" />
        </mxCell>
        <mxCell id="wfANbKLyDezjRCKtQaRJ-314" value="25" style="rounded=0;whiteSpace=wrap;html=1;" parent="1" vertex="1">
          <mxGeometry x="850" y="20" width="40" height="40" as="geometry" />
        </mxCell>
        <mxCell id="wfANbKLyDezjRCKtQaRJ-315" value="24" style="rounded=0;whiteSpace=wrap;html=1;" parent="1" vertex="1">
          <mxGeometry x="810" y="20" width="40" height="40" as="geometry" />
        </mxCell>
        <mxCell id="wfANbKLyDezjRCKtQaRJ-316" value="23" style="rounded=0;whiteSpace=wrap;html=1;" parent="1" vertex="1">
          <mxGeometry x="770" y="20" width="40" height="40" as="geometry" />
        </mxCell>
        <mxCell id="wfANbKLyDezjRCKtQaRJ-317" value="22" style="rounded=0;whiteSpace=wrap;html=1;" parent="1" vertex="1">
          <mxGeometry x="730" y="20" width="40" height="40" as="geometry" />
        </mxCell>
        <mxCell id="wfANbKLyDezjRCKtQaRJ-318" value="21" style="rounded=0;whiteSpace=wrap;html=1;" parent="1" vertex="1">
          <mxGeometry x="690" y="20" width="40" height="40" as="geometry" />
        </mxCell>
        <mxCell id="wfANbKLyDezjRCKtQaRJ-319" value="" style="endArrow=classic;html=1;rounded=0;entryX=0.11;entryY=-0.006;entryDx=0;entryDy=0;entryPerimeter=0;" parent="1" target="wfANbKLyDezjRCKtQaRJ-240" edge="1">
          <mxGeometry width="50" height="50" relative="1" as="geometry">
            <mxPoint x="1160" y="-100" as="sourcePoint" />
            <mxPoint x="1190" y="-150" as="targetPoint" />
          </mxGeometry>
        </mxCell>
        <mxCell id="wfANbKLyDezjRCKtQaRJ-321" value="i_col" style="text;html=1;align=center;verticalAlign=middle;whiteSpace=wrap;rounded=0;" parent="1" vertex="1">
          <mxGeometry x="1120" y="-130" width="60" height="30" as="geometry" />
        </mxCell>
        <mxCell id="wfANbKLyDezjRCKtQaRJ-467" value="if(done_i) begin&lt;div&gt;&lt;br&gt;&lt;/div&gt;&lt;div&gt;i_col == 0 -&amp;gt; o_select =0&lt;br&gt;else o_select + 1 -&amp;gt; max&amp;nbsp;&lt;/div&gt;&lt;div&gt;end&lt;/div&gt;" style="text;html=1;align=center;verticalAlign=middle;whiteSpace=wrap;rounded=0;" parent="1" vertex="1">
          <mxGeometry x="1470" y="-120" width="300" height="70" as="geometry" />
        </mxCell>
        <mxCell id="Ek5lkrG5dZ7s7TTfA4bs-3" value="sum1" style="rounded=0;whiteSpace=wrap;html=1;" parent="1" vertex="1">
          <mxGeometry x="195" y="400" width="45" height="40" as="geometry" />
        </mxCell>
        <mxCell id="Ek5lkrG5dZ7s7TTfA4bs-5" value="sum2" style="rounded=0;whiteSpace=wrap;html=1;" parent="1" vertex="1">
          <mxGeometry x="275" y="400" width="45" height="40" as="geometry" />
        </mxCell>
        <mxCell id="Ek5lkrG5dZ7s7TTfA4bs-6" value="sum3" style="rounded=0;whiteSpace=wrap;html=1;" parent="1" vertex="1">
          <mxGeometry x="357.5" y="400" width="45" height="40" as="geometry" />
        </mxCell>
        <mxCell id="Ek5lkrG5dZ7s7TTfA4bs-7" value="sum4" style="rounded=0;whiteSpace=wrap;html=1;" parent="1" vertex="1">
          <mxGeometry x="437.5" y="400" width="45" height="40" as="geometry" />
        </mxCell>
        <mxCell id="Ek5lkrG5dZ7s7TTfA4bs-8" value="sum5" style="rounded=0;whiteSpace=wrap;html=1;" parent="1" vertex="1">
          <mxGeometry x="515" y="400" width="45" height="40" as="geometry" />
        </mxCell>
        <mxCell id="Ek5lkrG5dZ7s7TTfA4bs-9" value="sum" style="rounded=0;whiteSpace=wrap;html=1;" parent="1" vertex="1">
          <mxGeometry x="637.5" y="400" width="45" height="40" as="geometry" />
        </mxCell>
        <mxCell id="Ek5lkrG5dZ7s7TTfA4bs-11" value="" style="endArrow=classic;html=1;rounded=0;" parent="1" edge="1">
          <mxGeometry width="50" height="50" relative="1" as="geometry">
            <mxPoint x="1520" y="50" as="sourcePoint" />
            <mxPoint x="1520" y="80" as="targetPoint" />
          </mxGeometry>
        </mxCell>
        <mxCell id="Ek5lkrG5dZ7s7TTfA4bs-13" value="done_o" style="text;html=1;align=center;verticalAlign=middle;whiteSpace=wrap;rounded=0;" parent="1" vertex="1">
          <mxGeometry x="1480" y="80" width="60" height="30" as="geometry" />
        </mxCell>
        <mxCell id="Ek5lkrG5dZ7s7TTfA4bs-15" value="" style="group" parent="1" vertex="1" connectable="0">
          <mxGeometry x="1150" y="145" width="30" height="210" as="geometry" />
        </mxCell>
        <mxCell id="wfANbKLyDezjRCKtQaRJ-429" value="" style="rounded=0;whiteSpace=wrap;html=1;" parent="Ek5lkrG5dZ7s7TTfA4bs-15" vertex="1">
          <mxGeometry width="30" height="210" as="geometry" />
        </mxCell>
        <mxCell id="wfANbKLyDezjRCKtQaRJ-430" value="" style="triangle;whiteSpace=wrap;html=1;direction=north;" parent="Ek5lkrG5dZ7s7TTfA4bs-15" vertex="1">
          <mxGeometry x="5" y="190" width="20" height="20" as="geometry" />
        </mxCell>
        <mxCell id="Ek5lkrG5dZ7s7TTfA4bs-16" value="" style="group" parent="1" vertex="1" connectable="0">
          <mxGeometry x="1220" y="175" width="30" height="180" as="geometry" />
        </mxCell>
        <mxCell id="wfANbKLyDezjRCKtQaRJ-442" value="" style="rounded=0;whiteSpace=wrap;html=1;" parent="Ek5lkrG5dZ7s7TTfA4bs-16" vertex="1">
          <mxGeometry width="30" height="180" as="geometry" />
        </mxCell>
        <mxCell id="wfANbKLyDezjRCKtQaRJ-443" value="" style="triangle;whiteSpace=wrap;html=1;direction=north;" parent="Ek5lkrG5dZ7s7TTfA4bs-16" vertex="1">
          <mxGeometry x="5" y="160" width="20" height="20" as="geometry" />
        </mxCell>
        <mxCell id="Ek5lkrG5dZ7s7TTfA4bs-17" value="" style="group" parent="1" vertex="1" connectable="0">
          <mxGeometry x="1290" y="210" width="30" height="145" as="geometry" />
        </mxCell>
        <mxCell id="wfANbKLyDezjRCKtQaRJ-444" value="" style="rounded=0;whiteSpace=wrap;html=1;" parent="Ek5lkrG5dZ7s7TTfA4bs-17" vertex="1">
          <mxGeometry width="30" height="145" as="geometry" />
        </mxCell>
        <mxCell id="wfANbKLyDezjRCKtQaRJ-445" value="" style="triangle;whiteSpace=wrap;html=1;direction=north;" parent="Ek5lkrG5dZ7s7TTfA4bs-17" vertex="1">
          <mxGeometry x="5" y="125" width="20" height="20" as="geometry" />
        </mxCell>
        <mxCell id="Ek5lkrG5dZ7s7TTfA4bs-18" value="" style="group" parent="1" vertex="1" connectable="0">
          <mxGeometry x="1350" y="250" width="30" height="105" as="geometry" />
        </mxCell>
        <mxCell id="wfANbKLyDezjRCKtQaRJ-449" value="" style="rounded=0;whiteSpace=wrap;html=1;" parent="Ek5lkrG5dZ7s7TTfA4bs-18" vertex="1">
          <mxGeometry width="30" height="105" as="geometry" />
        </mxCell>
        <mxCell id="wfANbKLyDezjRCKtQaRJ-450" value="" style="triangle;whiteSpace=wrap;html=1;direction=north;" parent="Ek5lkrG5dZ7s7TTfA4bs-18" vertex="1">
          <mxGeometry x="5" y="85" width="20" height="20" as="geometry" />
        </mxCell>
        <mxCell id="WsT5umdwhCH6O5YAjkOB-1" value="idle" style="ellipse;whiteSpace=wrap;html=1;aspect=fixed;" vertex="1" parent="1">
          <mxGeometry x="1040" y="-380" width="80" height="80" as="geometry" />
        </mxCell>
        <mxCell id="WsT5umdwhCH6O5YAjkOB-3" value="" style="endArrow=classic;html=1;rounded=0;exitX=1.004;exitY=0.534;exitDx=0;exitDy=0;exitPerimeter=0;" edge="1" parent="1" source="WsT5umdwhCH6O5YAjkOB-1">
          <mxGeometry width="50" height="50" relative="1" as="geometry">
            <mxPoint x="1150" y="-330" as="sourcePoint" />
            <mxPoint x="1200" y="-340" as="targetPoint" />
          </mxGeometry>
        </mxCell>
        <mxCell id="WsT5umdwhCH6O5YAjkOB-4" value="row_start" style="ellipse;whiteSpace=wrap;html=1;aspect=fixed;" vertex="1" parent="1">
          <mxGeometry x="1200" y="-380" width="80" height="80" as="geometry" />
        </mxCell>
        <mxCell id="WsT5umdwhCH6O5YAjkOB-5" value="i_col == 0 &amp;amp;&amp;amp; done_i" style="text;html=1;align=center;verticalAlign=middle;whiteSpace=wrap;rounded=0;" vertex="1" parent="1">
          <mxGeometry x="1117.5" y="-370" width="95" height="30" as="geometry" />
        </mxCell>
        <mxCell id="WsT5umdwhCH6O5YAjkOB-6" value="o_select = 0&lt;div&gt;done_o = 1&lt;/div&gt;" style="rounded=0;whiteSpace=wrap;html=1;" vertex="1" parent="1">
          <mxGeometry x="1200" y="-450" width="120" height="60" as="geometry" />
        </mxCell>
        <mxCell id="WsT5umdwhCH6O5YAjkOB-7" value="" style="endArrow=classic;html=1;rounded=0;exitX=0.5;exitY=1;exitDx=0;exitDy=0;entryX=0.5;entryY=0;entryDx=0;entryDy=0;" edge="1" parent="1" source="WsT5umdwhCH6O5YAjkOB-4" target="WsT5umdwhCH6O5YAjkOB-8">
          <mxGeometry width="50" height="50" relative="1" as="geometry">
            <mxPoint x="1239" y="-301" as="sourcePoint" />
            <mxPoint x="1240" y="-270" as="targetPoint" />
          </mxGeometry>
        </mxCell>
        <mxCell id="WsT5umdwhCH6O5YAjkOB-8" value="act" style="ellipse;whiteSpace=wrap;html=1;aspect=fixed;" vertex="1" parent="1">
          <mxGeometry x="1200" y="-250" width="80" height="80" as="geometry" />
        </mxCell>
        <mxCell id="WsT5umdwhCH6O5YAjkOB-10" value="" style="curved=1;endArrow=classic;html=1;rounded=0;exitX=0.82;exitY=0.898;exitDx=0;exitDy=0;exitPerimeter=0;entryX=0.959;entryY=0.238;entryDx=0;entryDy=0;entryPerimeter=0;" edge="1" parent="1" target="WsT5umdwhCH6O5YAjkOB-8">
          <mxGeometry width="50" height="50" relative="1" as="geometry">
            <mxPoint x="1275" y="-191.03999999999985" as="sourcePoint" />
            <mxPoint x="1287.72" y="-237.12" as="targetPoint" />
            <Array as="points">
              <mxPoint x="1359.4" y="-182.88" />
              <mxPoint x="1339.4" y="-232.88" />
              <mxPoint x="1309.4" y="-232.88" />
            </Array>
          </mxGeometry>
        </mxCell>
        <mxCell id="WsT5umdwhCH6O5YAjkOB-11" value="i_col != 0 &amp;amp;&amp;amp; done_i" style="text;html=1;align=center;verticalAlign=middle;whiteSpace=wrap;rounded=0;" vertex="1" parent="1">
          <mxGeometry x="1300" y="-260" width="60" height="30" as="geometry" />
        </mxCell>
        <mxCell id="WsT5umdwhCH6O5YAjkOB-12" value="i_col != 0 &amp;amp;&amp;amp; done_i" style="text;html=1;align=center;verticalAlign=middle;whiteSpace=wrap;rounded=0;" vertex="1" parent="1">
          <mxGeometry x="1170" y="-300" width="60" height="30" as="geometry" />
        </mxCell>
        <mxCell id="WsT5umdwhCH6O5YAjkOB-15" value="" style="curved=1;endArrow=classic;html=1;rounded=0;exitX=0.77;exitY=0.079;exitDx=0;exitDy=0;exitPerimeter=0;entryX=1.014;entryY=0.483;entryDx=0;entryDy=0;entryPerimeter=0;" edge="1" parent="1" source="WsT5umdwhCH6O5YAjkOB-8" target="WsT5umdwhCH6O5YAjkOB-4">
          <mxGeometry width="50" height="50" relative="1" as="geometry">
            <mxPoint x="1260" y="-260" as="sourcePoint" />
            <mxPoint x="1310" y="-310" as="targetPoint" />
            <Array as="points">
              <mxPoint x="1310" y="-260" />
              <mxPoint x="1310" y="-320" />
            </Array>
          </mxGeometry>
        </mxCell>
        <mxCell id="WsT5umdwhCH6O5YAjkOB-16" value="i_col == 0 &amp;amp;&amp;amp; done_i" style="text;html=1;align=center;verticalAlign=middle;whiteSpace=wrap;rounded=0;" vertex="1" parent="1">
          <mxGeometry x="1310" y="-310" width="60" height="30" as="geometry" />
        </mxCell>
        <mxCell id="WsT5umdwhCH6O5YAjkOB-18" value="" style="endArrow=classic;html=1;rounded=0;exitX=-0.033;exitY=0.498;exitDx=0;exitDy=0;exitPerimeter=0;entryX=1.014;entryY=0.584;entryDx=0;entryDy=0;entryPerimeter=0;" edge="1" parent="1" source="WsT5umdwhCH6O5YAjkOB-8">
          <mxGeometry width="50" height="50" relative="1" as="geometry">
            <mxPoint x="1125" y="-220" as="sourcePoint" />
            <mxPoint x="1111.1200000000001" y="-213.27999999999997" as="targetPoint" />
          </mxGeometry>
        </mxCell>
        <mxCell id="WsT5umdwhCH6O5YAjkOB-19" value="!done_i" style="text;html=1;align=center;verticalAlign=middle;whiteSpace=wrap;rounded=0;" vertex="1" parent="1">
          <mxGeometry x="1135" y="-235" width="60" height="30" as="geometry" />
        </mxCell>
        <mxCell id="WsT5umdwhCH6O5YAjkOB-22" value="o_select = o_select&amp;nbsp; + 1 (&amp;lt; 7)&lt;div&gt;done_o = 1&lt;/div&gt;" style="rounded=0;whiteSpace=wrap;html=1;" vertex="1" parent="1">
          <mxGeometry x="1360" y="-205" width="120" height="60" as="geometry" />
        </mxCell>
        <mxCell id="WsT5umdwhCH6O5YAjkOB-25" value="done" style="ellipse;whiteSpace=wrap;html=1;aspect=fixed;" vertex="1" parent="1">
          <mxGeometry x="1030" y="-250" width="80" height="80" as="geometry" />
        </mxCell>
        <mxCell id="WsT5umdwhCH6O5YAjkOB-26" value="done_i = #(5) done_i" style="text;html=1;align=center;verticalAlign=middle;whiteSpace=wrap;rounded=0;" vertex="1" parent="1">
          <mxGeometry x="1420" y="-400" width="60" height="30" as="geometry" />
        </mxCell>
        <mxCell id="WsT5umdwhCH6O5YAjkOB-27" value="N+2 delay cycle&amp;nbsp;" style="text;html=1;align=center;verticalAlign=middle;whiteSpace=wrap;rounded=0;" vertex="1" parent="1">
          <mxGeometry x="1750" y="-400" width="220" height="60" as="geometry" />
        </mxCell>
      </root>
    </mxGraphModel>
  </diagram>
</mxfile>
